<?xml version="1.0" encoding="UTF-8"?>
<svg version="1.1" xmlns="http://www.w3.org/2000/svg" width="1254" height="1254">
<path d="M0 0 C413.82 0 827.64 0 1254 0 C1254 413.82 1254 827.64 1254 1254 C840.18 1254 426.36 1254 0 1254 C0 840.18 0 426.36 0 0 Z " fill="#FDFDFD" transform="translate(0,0)"/>
<path d="M0 0 C1.55276893 -0.00397774 1.55276893 -0.00397774 3.13690692 -0.00803584 C6.61632011 -0.01571406 10.09569793 -0.01628745 13.57511902 -0.01688576 C16.09072373 -0.02090133 18.60632779 -0.02533972 21.12193108 -0.03016531 C27.31747193 -0.04087114 33.51300289 -0.04688427 39.70855124 -0.05087419 C47.13023739 -0.05589075 54.55191261 -0.06661935 61.97359229 -0.07735593 C79.91108929 -0.10296395 97.84859054 -0.1180171 115.78610056 -0.13086639 C121.72798827 -0.13512282 127.66987567 -0.13968858 133.611763 -0.14444971 C165.2177096 -0.1697099 196.82365673 -0.19175391 228.42961121 -0.20417786 C235.74967958 -0.20709909 243.06974794 -0.21006663 250.38981628 -0.21308327 C251.29922358 -0.21345418 252.20863088 -0.21382509 253.14559597 -0.21420723 C282.62860274 -0.22636188 312.11154981 -0.2573061 341.59452854 -0.29900479 C371.91402853 -0.3418083 402.23349697 -0.36842079 432.55302799 -0.37365257 C436.83687079 -0.37439299 441.12071353 -0.37530367 445.40455627 -0.37631035 C446.66915842 -0.37659627 446.66915842 -0.37659627 447.95930808 -0.37688797 C461.51575165 -0.38039871 475.07212029 -0.4006833 488.62853637 -0.42710699 C502.25976773 -0.45327551 515.89091271 -0.46096891 529.5221656 -0.4500057 C537.61534448 -0.44403766 545.7082299 -0.45189422 553.80136425 -0.47983653 C559.8523291 -0.49917785 565.90296895 -0.49223499 571.95395315 -0.47526737 C574.39612676 -0.47246638 576.83832805 -0.47807118 579.28045714 -0.4930803 C600.27590036 -0.61419439 617.53671398 2.27645244 633.45085144 17.32451439 C643.61181681 28.04184385 650.52822818 42.16704671 650.86296082 57.11992455 C650.88547913 58.08507988 650.90799744 59.05023521 650.93119812 60.04463768 C651.00287089 64.45375926 651.05972502 68.86272912 651.09831238 73.2722683 C651.12488426 75.58823427 651.16577011 77.90408271 651.22135925 80.21953392 C651.78124015 103.85257863 651.78124015 103.85257863 643.63835144 113.13701439 C642.82790573 114.50658292 642.05910241 115.90214159 641.34538269 117.32451439 C641.02730652 117.95406029 640.70923035 118.58360619 640.3815155 119.23222923 C639.92083679 120.17509789 639.92083679 120.17509789 639.45085144 121.13701439 C639.11408386 121.8236013 638.77731628 122.51018822 638.43034363 123.2175808 C635.75691912 128.74983218 633.38899169 134.2364189 631.63835144 140.13701439 C631.26710144 141.28556908 630.89585144 142.43412376 630.51335144 143.61748314 C621.39924816 175.0260852 628.5590203 209.1265869 641.63835144 238.13701439 C642.40070802 239.50968564 643.17429849 240.87615717 643.95695496 242.23735619 C651.64449395 256.02798246 651.72277263 268.2970856 651.20085144 283.82451439 C651.15558264 286.19487969 651.11454025 288.56532962 651.07780457 290.93584251 C650.97989755 296.67145282 650.83036252 302.40382185 650.63835144 308.13701439 C649.61572205 308.70077782 649.61572205 308.70077782 648.57243347 309.2759304 C632.57391941 318.10541234 616.67756977 327.08981046 600.87223816 336.26201439 C595.46632821 339.39634841 590.05193759 342.51596394 584.63835144 345.63701439 C578.16059367 349.37322919 571.68345147 353.11049794 565.20866394 356.85185814 C554.61990807 362.96866372 544.02202359 369.06881794 533.40162659 375.13051414 C528.73566075 377.79390775 524.07111398 380.45978613 519.40684509 383.12615013 C518.21621155 383.80671174 517.02549545 384.48712893 515.83470154 385.1674099 C511.70397752 387.52746643 507.57676835 389.89356352 503.45085144 392.26201439 C502.39446472 392.86529564 501.338078 393.46857689 500.24967957 394.09013939 C486.57512457 400.96396121 486.57512457 400.96396121 478.63835144 413.13701439 C477.50829904 419.76520633 478.91217503 424.82334518 481.76335144 430.81279564 C487.48331879 437.90317183 497.96596135 441.68428511 505.88835144 446.01201439 C510.21637575 448.37853657 514.53990673 450.75262741 518.85197449 453.14812279 C520.04987532 453.81124938 521.24994486 454.47047234 522.45207214 455.12590599 C524.16074088 456.05889671 525.86070726 457.00777169 527.56022644 457.95732689 C528.54088074 458.49889427 529.52153503 459.04046165 530.53190613 459.59844017 C531.22703308 460.10616966 531.92216003 460.61389915 532.63835144 461.13701439 C532.63835144 462.12701439 532.63835144 463.11701439 532.63835144 464.13701439 C531.88964783 464.56409691 531.14094421 464.99117943 530.36955261 465.43120384 C529.31743591 466.03150414 528.26531921 466.63180443 527.18132019 467.25029564 C526.61073883 467.5758091 526.04015747 467.90132256 525.45228577 468.23670006 C522.29262246 470.03980271 519.13422615 471.84507642 515.97795105 473.65410423 C514.69029967 474.39194547 513.40262063 475.12973844 512.11491394 475.86748314 C511.47467789 476.23430199 510.83444183 476.60112083 510.17480469 476.9790554 C506.37075136 479.15542175 502.5540356 481.30682375 498.72428894 483.43779564 C497.43421936 484.16325584 497.43421936 484.16325584 496.11808777 484.90337181 C494.55556587 485.7816098 492.98797604 486.6509178 491.41447449 487.50932884 C485.77738395 490.70088339 480.81347851 494.77895064 478.63835144 501.13701439 C477.83870053 509.20790964 477.36933793 517.52219597 482.63835144 524.13701439 C488.55860908 529.44220417 495.64371186 533.10013445 502.57585144 536.88701439 C504.79273831 538.11354055 507.00888087 539.34141293 509.22428894 540.57060814 C510.30806824 541.17115013 511.39184753 541.77169212 512.50846863 542.39043236 C516.93521849 544.86071071 521.326959 547.38700308 525.70085144 549.94951439 C526.41426697 550.36362572 527.1276825 550.77773705 527.86271667 551.2043972 C529.47251943 552.15212822 531.05877012 553.13972714 532.63835144 554.13701439 C532.63835144 554.46701439 532.63835144 554.79701439 532.63835144 555.13701439 C480.67255842 555.20550024 428.70676202 555.2691811 376.74093628 555.30638695 C375.97160459 555.30693918 375.20227289 555.3074914 374.40962812 555.30806037 C357.68925226 555.3200325 340.96887593 555.33111316 324.24849888 555.34127571 C316.04861564 555.34626497 307.84873253 555.3514512 299.64884949 555.35674095 C298.8328704 555.35726399 298.01689132 555.35778702 297.17618559 555.35832591 C270.73654465 555.3753658 244.29693794 555.40540694 217.85731773 555.44220327 C190.68308057 555.47995322 163.50886234 555.50456071 136.3345994 555.51267435 C132.49483733 555.51382694 128.65507533 555.51512948 124.81531334 555.51652336 C123.68175312 555.5169279 123.68175312 555.5169279 122.52529269 555.51734061 C110.36933458 555.52206416 98.2134351 555.54060743 86.05750088 555.56434252 C73.83131974 555.587919 61.60519662 555.59687943 49.37899355 555.5910199 C42.75673446 555.58824879 36.13461138 555.59239951 29.51237297 555.61383629 C23.44653196 555.63332846 17.38097804 555.63426672 11.3151237 555.62060997 C9.12378402 555.61892254 6.9324263 555.6239738 4.74112204 555.63654712 C-14.93208218 555.74284065 -30.53690358 552.64541879 -45.36164856 538.63701439 C-51.65493762 531.74285854 -55.94002433 523.77633137 -59.36164856 515.13701439 C-59.87290315 513.96636971 -60.38415773 512.79572504 -60.91090488 511.58960629 C-63.39746971 503.99551885 -62.77799027 495.82761041 -62.74932861 487.92679405 C-62.75350388 486.05776702 -62.75898245 484.18874252 -62.76564842 482.31972271 C-62.78009712 477.19458151 -62.77586001 472.0696012 -62.76848161 466.94445121 C-62.76375067 461.412539 -62.77625936 455.88066164 -62.78649902 450.3487606 C-62.80369553 439.51404327 -62.80452502 428.6793839 -62.79928612 417.84465646 C-62.7952437 409.03493314 -62.79668885 400.22522695 -62.80203438 391.41550446 C-62.8027828 390.16132943 -62.80353122 388.9071544 -62.80430232 387.61497407 C-62.80583382 385.06700157 -62.80737217 382.51902908 -62.80891729 379.97105659 C-62.81874657 362.86206196 -62.82290948 345.75307387 -62.8152914 328.64407825 C-62.81499423 327.97525734 -62.81469706 327.30643642 -62.81439088 326.6173482 C-62.81194209 321.186483 -62.80933042 315.75561787 -62.80670675 310.32475275 C-62.79661139 289.1562675 -62.8049469 267.98786162 -62.82820129 246.81938744 C-62.85430516 223.01870371 -62.86706348 199.21806127 -62.86001354 175.41735893 C-62.85652371 162.82239986 -62.85873752 150.22750594 -62.87626457 137.63255692 C-62.89100498 126.90711105 -62.89159823 116.18177617 -62.87419366 105.45633244 C-62.86569527 99.9880237 -62.86350567 94.51991305 -62.87884521 89.05161476 C-62.89273741 84.036978 -62.88787098 79.02270819 -62.86860598 74.00809241 C-62.86485944 72.20257158 -62.86772871 70.39702105 -62.87821763 68.5915268 C-62.98362413 49.0435985 -59.59539096 32.13420912 -45.73274231 17.42998314 C-39.1879713 11.10085532 -32.18471002 5.88124505 -23.48664856 3.01201439 C-22.49922668 2.67943626 -21.51180481 2.34685814 -20.49446106 2.00420189 C-13.67943529 0.11774837 -7.0128531 -0.00877195 0 0 Z " fill="#033E64" transform="translate(174.3616485595703,342.8629856109619)"/>
<path d="M0 0 C1.01758756 -0.00623996 2.03517512 -0.01247993 3.08359867 -0.01890898 C6.46816921 -0.0347693 9.85201259 -0.0222616 13.23658752 -0.00964355 C15.67338987 -0.01506777 18.11018893 -0.02219211 20.54698181 -0.03088379 C26.46363199 -0.04719745 32.3800957 -0.04485421 38.29674058 -0.03323323 C43.10859086 -0.02417595 47.92038431 -0.02298479 52.73224068 -0.02732849 C53.41877477 -0.02794142 54.10530887 -0.02855436 54.81264703 -0.02918586 C56.20762167 -0.03046485 57.60259628 -0.0317617 58.99757088 -0.03307623 C72.05961452 -0.0444657 85.12154563 -0.03139449 98.18357081 -0.00987476 C109.37366268 0.00799077 120.5635885 0.0048935 131.75367737 -0.0135498 C144.76947814 -0.03499238 157.7851804 -0.04336302 170.80099636 -0.03110075 C172.19096027 -0.02982665 173.5809242 -0.02856916 174.97088814 -0.02732849 C175.99653676 -0.02640284 175.99653676 -0.02640284 177.04290555 -0.02545848 C181.84439773 -0.02201542 186.64582705 -0.0278114 191.44730949 -0.0372467 C197.91938258 -0.04968607 204.39121676 -0.04073393 210.86326218 -0.01766968 C213.23394185 -0.01239558 215.60464797 -0.01387399 217.975317 -0.02272034 C221.22054937 -0.03371058 224.46479105 -0.01986929 227.70996094 0 C228.63994461 -0.00892289 229.56992828 -0.01784577 230.52809328 -0.02703905 C244.1857508 0.13428229 255.04118592 6.67362948 264.40895081 16.19250488 C267.79512772 20.09415739 270.12508834 24.46520463 272.54347229 29.00793457 C273.66031774 31.04269204 274.7788668 33.07651517 275.89894104 35.10949707 C276.47176819 36.15653809 277.04459534 37.2035791 277.63478088 38.28234863 C280.62833508 43.69582222 283.7387192 49.04002444 286.85597229 54.38293457 C287.70602844 55.85149902 287.70602844 55.85149902 288.57325745 57.34973145 C296.32274549 70.64764243 303.66410029 82.32885894 319.23174953 87.05887377 C321.77231999 87.58059999 324.1083177 87.63534316 326.70291138 87.63821983 C328.31831094 87.64365635 328.31831094 87.64365635 329.96634483 87.6492027 C331.74004416 87.64760033 331.74004416 87.64760033 333.54957581 87.64596558 C334.80634439 87.64878686 336.06311298 87.65160814 337.35796547 87.65451491 C340.84885103 87.66226871 344.33971693 87.66388737 347.83061004 87.66456604 C351.59495501 87.66640574 355.35928848 87.67401281 359.12362671 87.68104553 C365.64913286 87.69257362 372.17463642 87.70081687 378.70014954 87.70716476 C389.02049968 87.71749397 399.34081767 87.73805944 409.66114807 87.76028442 C413.19294728 87.76776436 416.72474663 87.77517811 420.25654602 87.78257179 C421.58058048 87.78534764 421.58058048 87.78534764 422.93136311 87.78817957 C432.98093673 87.80910969 443.03051392 87.82793528 453.08009338 87.8458252 C454.45812873 87.84828247 454.45812873 87.84828247 455.86400318 87.85078938 C470.73834746 87.87705178 485.61269422 87.89570745 500.48705184 87.9124171 C515.76503318 87.92985702 531.04296599 87.95872414 546.32090855 87.99730647 C555.73974897 88.02066801 565.15851025 88.03469758 574.57737988 88.0366341 C581.03861589 88.03874859 587.49977333 88.05172052 593.96097404 88.07311343 C597.68497436 88.08510319 601.40881874 88.09232015 605.1328373 88.08640099 C609.17920996 88.08008491 613.22516641 88.09699568 617.27149963 88.11593628 C619.0184303 88.10764174 619.0184303 88.10764174 620.8006525 88.09917963 C637.24183433 88.23156996 651.25728915 93.68610032 663.20362854 105.12902832 C674.8969813 117.68855536 679.77295155 131.76238263 679.61378479 148.66418457 C679.60953995 150.3784967 679.60953995 150.3784967 679.60520935 152.12744141 C679.59407254 155.75438189 679.5689797 159.38106953 679.54347229 163.00793457 C679.5334341 165.47668099 679.52430972 167.9454313 679.51612854 170.41418457 C679.49415448 176.44551989 679.46074186 182.47670916 679.41847229 188.50793457 C677.29448421 186.38394649 676.57058587 184.79134313 675.35597229 182.07043457 C667.8153786 166.8577252 653.91748245 156.01078014 638.41847229 149.50793457 C630.64430406 147.13211539 623.41801119 146.07059238 615.311059 146.12761784 C614.25600431 146.12295792 613.20094962 146.118298 612.11392358 146.11349687 C608.59690773 146.10159545 605.08028166 146.11092376 601.56326294 146.12025452 C599.00891747 146.1160795 596.45457386 146.11060106 593.90023369 146.10393471 C588.35599188 146.09159664 582.81183473 146.09034295 577.26758385 146.09648514 C569.02289843 146.1055945 560.77829101 146.09752954 552.53361157 146.0861939 C537.80636031 146.06654436 523.07914428 146.06417625 508.35188304 146.0693891 C495.46307854 146.07394888 482.57428798 146.07334384 469.68548393 146.06754875 C467.95561592 146.06679188 466.22574791 146.0660359 464.4958799 146.06528081 C461.88903149 146.0641356 459.28218307 146.06298572 456.67533467 146.06182156 C432.44479532 146.0511192 408.2142606 146.04638866 383.98371983 146.05429173 C383.07064936 146.0545889 382.15757889 146.05488607 381.21683961 146.05519225 C373.80237755 146.05764111 366.38791554 146.06025273 358.97345353 146.06287638 C330.05072615 146.07297945 301.12805682 146.06462121 272.20533752 146.04138184 C239.69854297 146.01530482 207.19178335 146.00246238 174.68497795 146.00956959 C171.21841078 146.01028563 167.7518436 146.01096002 164.28527641 146.01161003 C163.43174077 146.01177984 162.57820513 146.01194965 161.69880476 146.0121246 C148.82000863 146.01442663 135.94124498 146.00645526 123.06245613 145.99331856 C108.41518854 145.97840446 93.76799702 145.97756807 79.12073106 145.99538947 C70.92717527 146.00494849 62.73379692 146.00352577 54.54025299 145.98615478 C48.41832309 145.97441972 42.29659167 145.98365272 36.1746788 146.00097715 C33.7010683 146.00474718 31.22743634 146.00178645 28.75384492 145.9913655 C11.18319781 145.79073166 11.18319781 145.79073166 -5.58152771 150.50793457 C-6.56625231 150.91243099 -6.56625231 150.91243099 -7.57087034 151.32509905 C-24.27092603 158.71472522 -35.4039246 171.58519774 -43.58152771 187.50793457 C-43.91152771 187.50793457 -44.24152771 187.50793457 -44.58152771 187.50793457 C-44.69859899 167.91418374 -44.78663202 148.3205044 -44.84058857 128.72647572 C-44.86631326 119.62754907 -44.90135337 110.5288404 -44.95872498 101.43005371 C-45.00873638 93.4947323 -45.04086036 85.55956884 -45.05197018 77.62409419 C-45.05845911 73.42659893 -45.07358837 69.22955533 -45.11017799 65.03220558 C-45.14441886 61.07175548 -45.15452493 57.11193792 -45.14706612 53.15135384 C-45.14842826 51.70709023 -45.1581926 50.26280282 -45.17755508 48.81866837 C-45.343841 35.7627548 -42.55176983 24.81963364 -33.87840271 14.79309082 C-24.1652809 5.12952575 -13.70881289 -0.1312168 0 0 Z " fill="#043E64" transform="translate(149.58152770996094,170.4920654296875)"/>
<path d="M0 0 C3.51538762 0.57185178 6.21423893 1.45659354 9.31640625 3.1953125 C10.14833496 3.65607178 10.98026367 4.11683105 11.83740234 4.59155273 C13.18632568 5.35060913 13.18632568 5.35060913 14.5625 6.125 C16.54493429 7.22380923 18.52803993 8.32140786 20.51171875 9.41796875 C22.09025635 10.29267822 22.09025635 10.29267822 23.70068359 11.18505859 C28.81023183 13.99580165 33.95325188 16.74320401 39.09793091 19.48898315 C42.0820115 21.08174661 45.06455341 22.6773834 48.046875 24.2734375 C48.63388687 24.58758102 49.22089874 24.90172455 49.82569885 25.22538757 C56.5856906 28.84552738 63.32609318 32.50160566 70.06640625 36.15820312 C77.3291056 40.09737582 84.59969551 44.02165837 91.875 47.9375 C92.95249512 48.51749756 94.02999023 49.09749512 95.14013672 49.69506836 C100.64216815 52.65615418 106.14505471 55.61564542 111.6484375 58.57421875 C122.61619027 64.47246124 133.57075567 70.39264612 144.49487305 76.37133789 C149.78975692 79.26397138 155.09786227 82.13067039 160.41796875 84.9765625 C161.36956879 85.48561882 161.36956879 85.48561882 162.34039307 86.00495911 C165.46706976 87.67676943 168.59491684 89.34635344 171.72412109 91.01342773 C172.8580127 91.61872314 173.9919043 92.22401855 175.16015625 92.84765625 C176.16699463 93.38398682 177.17383301 93.92031738 178.21118164 94.47290039 C185.72480353 98.58720529 185.72480353 98.58720529 188 102 C188 104.875 188 104.875 187 108 C183.01123966 111.7157202 178.79852588 114.4229911 174 117 C167.46897517 120.59122065 161.03025397 124.3141188 154.625 128.125 C146.34767423 133.04127841 138.03201077 137.88615028 129.6875 142.6875 C122.46143422 146.84542428 115.24162255 151.01145428 108.0625 155.25 C102.40975282 158.58685196 96.74398558 161.89978824 91.0625 165.1875 C90.28269775 165.63875244 89.50289551 166.09000488 88.69946289 166.55493164 C84.12504281 169.19948257 79.54625803 171.83633516 74.96484375 174.46875 C62.62910537 181.56182316 50.34763811 188.73651447 38.1184082 196.01171875 C30.34228083 200.63077773 22.52877226 205.18000502 14.6875 209.6875 C5.94439715 214.71352991 -2.76539569 219.78988687 -11.44018555 224.93286133 C-19.32108047 229.6043162 -27.22063058 234.24342197 -35.125 238.875 C-35.7307486 239.23003601 -36.33649719 239.58507202 -36.96060181 239.9508667 C-37.55215057 240.29756409 -38.14369934 240.64426147 -38.75317383 241.00146484 C-39.33591568 241.34303619 -39.91865753 241.68460754 -40.51905823 242.03652954 C-42.23478133 243.0412012 -43.95185468 244.04356583 -45.66894531 245.04589844 C-47.89342012 246.3508454 -50.11154959 247.66666845 -52.32324219 248.99316406 C-53.36899414 249.61674805 -54.41474609 250.24033203 -55.4921875 250.8828125 C-56.41112793 251.43598145 -57.33006836 251.98915039 -58.27685547 252.55908203 C-62.71865208 254.90940331 -66.904548 256.2880286 -71.9375 256.3125 C-72.73027344 256.32925781 -73.52304687 256.34601563 -74.33984375 256.36328125 C-81.47328479 255.38911089 -88.03720666 250.91875499 -94.25 247.5 C-95.22090576 246.96810059 -96.19181152 246.43620117 -97.19213867 245.88818359 C-104.05482319 242.11211087 -110.85069117 238.23202188 -117.61352539 234.28051758 C-124.09343622 230.50129487 -130.63364142 226.83670458 -137.1875 223.1875 C-145.57931539 218.51270108 -153.90705699 213.74422614 -162.1875 208.875 C-170.61030408 203.92431696 -179.11581943 199.17084607 -187.71606445 194.53637695 C-194.52109203 190.85171536 -201.20843765 186.99137637 -207.875 183.0625 C-218.87620025 176.58490764 -230.05892682 170.49079689 -241.30615234 164.45361328 C-245.1178729 162.39679035 -248.90542942 160.2982278 -252.6875 158.1875 C-260.49051107 153.83693281 -268.30413358 149.50586932 -276.125 145.1875 C-276.74457581 144.84529419 -277.36415161 144.50308838 -278.00250244 144.1505127 C-286.66512804 139.36777206 -295.35279927 134.63413042 -304.0625 129.9375 C-325.78130555 118.21869445 -325.78130555 118.21869445 -328 116 C-328.375 113.6875 -328.375 113.6875 -328 111 C-324.16479498 107.42979955 -319.76499419 105.08729897 -315.1875 102.625 C-307.92981001 98.6571435 -300.75895827 94.56105623 -293.625 90.375 C-284.78275924 85.19159295 -275.9060326 80.07267195 -267 75 C-258.2398825 70.01039137 -249.50869282 64.9755411 -240.8125 59.875 C-231.72585134 54.54834389 -222.56208818 49.37431896 -213.35913086 44.25170898 C-205.14464438 39.66847239 -197.01428466 34.95222075 -188.90087891 30.19287109 C-180.05374335 25.01054008 -171.13655867 19.95835269 -162.19921875 14.93359375 C-158.960971 13.11196853 -155.73304822 11.27505926 -152.51953125 9.41015625 C-151.53267334 8.8385376 -151.53267334 8.8385376 -150.52587891 8.25537109 C-148.83170252 7.27126386 -147.14032724 6.28233862 -145.44921875 5.29296875 C-143 4 -143 4 -141 4 C-140.34366577 5.19206055 -140.34366577 5.19206055 -139.67407227 6.40820312 C-138.0078703 9.4336002 -136.34107516 12.45866879 -134.67382812 15.48348999 C-133.93519713 16.82373933 -133.19675196 18.16409111 -132.45849609 19.50454712 C-127.83047507 27.90666397 -123.19753508 36.3047631 -118.38891602 44.60546875 C-116 48.78384608 -116 48.78384608 -116 51 C-117.258125 51.3403125 -118.51625 51.680625 -119.8125 52.03125 C-135.56665096 56.43300865 -149.76324409 61.80756834 -162 73 C-162.64324219 73.56332031 -163.28648437 74.12664062 -163.94921875 74.70703125 C-170.21387673 80.50965372 -175.65066794 88.13430347 -176.2734375 96.80859375 C-176.67485741 109.54191002 -174.99086622 118.63455578 -166.5625 128.6875 C-151.7655931 143.90029629 -130.30763264 152.01534963 -109.9375 156.1875 C-109.1225708 156.35467529 -108.3076416 156.52185059 -107.46801758 156.6940918 C-95.38356731 159.04038748 -83.32920256 159.2395494 -71.0625 159.25 C-70.24151825 159.25100708 -69.4205365 159.25201416 -68.57467651 159.25305176 C-56.17673457 159.24277142 -44.12626709 158.82504034 -32 156 C-30.75476563 155.70996094 -29.50953125 155.41992188 -28.2265625 155.12109375 C-12.76636183 151.04274059 3.75887407 144.8618559 16.0625 134.515625 C18 133 18 133 20.125 132.046875 C22.52228957 130.70838833 22.91690438 129.48794767 24 127 C25.45270422 124.81082735 26.95536824 122.66204575 28.46484375 120.51171875 C33.67222395 111.99175573 34.36920602 103.72136273 33 94 C28.56075978 79.26979383 16.79665653 70.28234184 4 63 C2.32744141 62.03900391 2.32744141 62.03900391 0.62109375 61.05859375 C-8.54424677 56.14138325 -17.94380302 53.4741437 -28 51 C-26.58173646 47.23484289 -24.86675101 43.78731022 -22.91015625 40.2734375 C-22.295354 39.16718018 -21.68055176 38.06092285 -21.04711914 36.92114258 C-20.38575205 35.73899846 -19.72420899 34.55695277 -19.0625 33.375 C-18.38851465 32.16630205 -17.71460569 30.95756151 -17.04077148 29.7487793 C-11.46857042 19.76976722 -5.77753963 9.86145537 0 0 Z " fill="#7CAC3E" transform="translate(996,648)"/>
<path d="M0 0 C1.91522461 -0.01160156 1.91522461 -0.01160156 3.86914062 -0.0234375 C15.91678538 0.00108697 26.97479821 1.16097341 38.125 5.875 C38.97908447 6.22908936 39.83316895 6.58317871 40.71313477 6.94799805 C53.82659136 12.51139463 64.68844776 19.69484595 75.1875 29.25 C75.84105469 29.80945313 76.49460937 30.36890625 77.16796875 30.9453125 C91.62328879 44.06154114 100.22741014 63.80466584 105.1875 82.25 C105.435 83.1471875 105.6825 84.044375 105.9375 84.96875 C116.97435207 133.4082674 82.52944304 188.14304224 59.70800781 228.54589844 C57.99280684 231.59624622 56.30390414 234.660375 54.6171875 237.7265625 C48.03036072 249.68261235 41.31375215 261.54855307 34.39599609 273.31616211 C30.14906233 280.55539013 26.02071111 287.85481664 21.9375 295.1875 C17.81821157 302.5827128 13.66619175 309.95292759 9.375 317.25 C8.96024414 317.95632568 8.54548828 318.66265137 8.11816406 319.39038086 C5.32048879 324.11701121 5.32048879 324.11701121 4.1875 325.25 C1.80859375 325.55249023 1.80859375 325.55249023 -0.8125 325.25 C-2.40234375 323.65258789 -2.40234375 323.65258789 -3.75 321.41015625 C-4.2553125 320.58402832 -4.760625 319.75790039 -5.28125 318.90673828 C-6.03921875 317.59165283 -6.03921875 317.59165283 -6.8125 316.25 C-7.2971875 315.42097168 -7.781875 314.59194336 -8.28125 313.73779297 C-9.81664244 311.06770059 -11.3175449 308.38042709 -12.8125 305.6875 C-17.33105007 297.61414883 -21.93167727 289.59790553 -26.625 281.625 C-34.014264 269.03892526 -41.03489216 256.25923139 -48.046875 243.4609375 C-49.9709914 239.96177006 -51.91876225 236.47658498 -53.8737793 232.99462891 C-60.10743701 221.8792836 -65.99025876 210.58523557 -71.8125 199.25 C-72.28333008 198.33702148 -72.75416016 197.42404297 -73.23925781 196.48339844 C-85.51859441 172.60452033 -98.07090362 147.89163148 -102.8125 121.25 C-102.99425781 120.34765625 -103.17601562 119.4453125 -103.36328125 118.515625 C-106.23629749 97.6300461 -102.75668879 76.80907728 -92.8125 58.25 C-92.36261719 57.33476562 -91.91273438 56.41953125 -91.44921875 55.4765625 C-78.60656158 30.22536615 -55.57152858 12.40166934 -29.015625 3.4765625 C-19.28652882 0.51728138 -10.15940367 -0.06098692 0 0 Z " fill="#7BAB3D" transform="translate(922.8125,413.75)"/>
<path d="M0 0 C0.82129395 0.45665039 1.64258789 0.91330078 2.48876953 1.38378906 C3.42970459 1.90062256 4.37063965 2.41745605 5.34008789 2.94995117 C6.34048096 3.51077393 7.34087402 4.07159668 8.37158203 4.64941406 C10.5158862 5.83341916 12.6604245 7.01700031 14.80517578 8.20019531 C16.45622314 9.11599365 16.45622314 9.11599365 18.140625 10.05029297 C21.44615915 11.87163122 24.76618912 13.66256335 28.09423828 15.44238281 C29.15723145 16.01182617 30.22022461 16.58126953 31.31542969 17.16796875 C33.33847831 18.25060226 35.36281807 19.33082789 37.38867188 20.40820312 C50.65019144 27.54249232 50.65019144 27.54249232 54.49658203 30.89941406 C55.37158203 34.52441406 55.37158203 34.52441406 54.49658203 37.89941406 C51.31263057 40.78348131 47.88802471 42.95884037 44.16455078 45.07910156 C43.13136719 45.67078125 42.09818359 46.26246094 41.03369141 46.87207031 C39.92832031 47.49984375 38.82294922 48.12761719 37.68408203 48.77441406 C35.92175107 49.78181427 34.16033671 50.79080464 32.3989563 51.79986572 C31.19649132 52.48861649 29.99375064 53.17688612 28.79074097 53.86468506 C23.00512227 57.17391892 17.24898929 60.53282 11.49658203 63.89941406 C-0.05018254 70.64732538 -11.63244528 77.33281129 -23.22119141 84.00830078 C-29.73441364 87.76100975 -36.24487152 91.51851421 -42.75512695 95.27636719 C-48.15674558 98.39382413 -53.56032187 101.50777763 -58.96826172 104.61425781 C-69.98391463 110.94705239 -80.96032563 117.33718281 -91.87841797 123.83691406 C-102.2652626 130.01923738 -112.72357949 136.0600729 -123.22900391 142.03759766 C-130.72145716 146.30190905 -138.18729429 150.60862876 -145.62841797 154.96191406 C-154.17869289 159.96236852 -162.73970601 164.94360357 -171.31591797 169.89941406 C-172.37117676 170.51051025 -173.42643555 171.12160645 -174.51367188 171.7512207 C-195.87029176 184.07939828 -195.87029176 184.07939828 -202.37841797 184.33691406 C-203.42771484 184.3975 -204.47701172 184.45808594 -205.55810547 184.52050781 C-215.41195039 182.96925896 -224.41380078 176.31450199 -232.87841797 171.27441406 C-240.68091733 166.67269063 -248.52766555 162.19382727 -256.50341797 157.89941406 C-265.17831226 153.22280573 -273.69802543 148.31971019 -282.19091797 143.32128906 C-289.73235865 138.89710628 -297.34776177 134.6224521 -305.00341797 130.39941406 C-314.65457065 125.07314503 -324.21402848 119.61440127 -333.71948242 114.03271484 C-342.39964208 108.94079599 -351.15255332 103.98501419 -359.92138672 99.04785156 C-365.29535749 96.02144279 -370.65154004 92.96468124 -376.00341797 89.89941406 C-384.12354357 85.2504174 -392.26463898 80.63970437 -400.41430664 76.04272461 C-408.83380354 71.28865769 -417.22632202 66.48794955 -425.61550903 61.68069458 C-433.7615988 57.01393272 -441.92971508 52.39159253 -450.17651367 47.90454102 C-457.18696644 44.06143549 -457.18696644 44.06143549 -459.50341797 41.89941406 C-460.55647396 36.95815135 -460.55647396 36.95815135 -459.50341797 33.89941406 C-457.81567383 32.37573242 -457.81567383 32.37573242 -455.59326172 30.98925781 C-454.77494873 30.47693604 -453.95663574 29.96461426 -453.11352539 29.43676758 C-448.88075502 26.94366543 -444.58837352 24.58450968 -440.25341797 22.27441406 C-432.45350689 18.06790016 -424.69958427 13.79313112 -417.00341797 9.39941406 C-416.13813477 8.90747559 -415.27285156 8.41553711 -414.38134766 7.90869141 C-413.56569336 7.44156738 -412.75003906 6.97444336 -411.90966797 6.49316406 C-411.14525391 6.05617188 -410.38083984 5.61917969 -409.59326172 5.16894531 C-407.70008669 4.01888572 -405.98261065 2.77003394 -404.22216797 1.43066406 C-403.32498047 0.92535156 -402.42779297 0.42003906 -401.50341797 -0.10058594 C-397.69760569 1.0714823 -394.31530298 3.02039191 -390.84716797 4.95410156 C-389.20627197 5.86687866 -389.20627197 5.86687866 -387.53222656 6.7980957 C-386.35587902 7.45672918 -385.1796114 8.11550541 -384.00341797 8.77441406 C-382.78164923 9.45610544 -381.55980592 10.13766316 -380.33789062 10.8190918 C-372.31597529 15.29849407 -364.32652987 19.83347306 -356.35888672 24.40869141 C-349.5999412 28.28628706 -342.80661294 32.10006583 -336.00341797 35.89941406 C-327.41277511 40.69821639 -318.84914446 45.54041633 -310.31152344 50.43286133 C-301.0307949 55.74934014 -291.71654396 61.00601454 -282.40185547 66.26269531 C-279.53886211 67.87939911 -276.67716298 69.49836833 -273.81591797 71.11816406 C-262.6442648 77.44137925 -251.45756452 83.73669394 -240.2487793 89.99389648 C-235.82560431 92.46570166 -231.40682923 94.9415158 -227.02685547 97.48925781 C-226.38498291 97.86203857 -225.74311035 98.23481934 -225.08178711 98.61889648 C-223.47577465 99.55612565 -221.87411324 100.50080068 -220.27294922 101.44628906 C-214.7876197 104.3243463 -210.2539711 105.17474898 -204.06591797 105.14941406 C-202.80908203 105.15457031 -201.55224609 105.15972656 -200.25732422 105.16503906 C-191.86949419 104.57151935 -185.65454985 101.00372749 -178.50341797 96.89941406 C-177.55208984 96.35961914 -176.60076172 95.81982422 -175.62060547 95.26367188 C-172.57486476 93.52861492 -169.53802721 91.77886343 -166.50341797 90.02441406 C-165.38402832 89.37802979 -164.26463867 88.73164551 -163.11132812 88.06567383 C-153.85962501 82.7148083 -144.66233759 77.27374789 -135.47436523 71.81420898 C-118.80097791 61.90938138 -102.02235409 52.18825039 -85.21850586 42.50683594 C-74.95488523 36.59067442 -64.72130015 30.62372543 -54.49316406 24.64648438 C-51.44098611 22.86293175 -48.38833772 21.08018766 -45.33544922 19.29785156 C-44.31708984 18.70311035 -43.29873047 18.10836914 -42.24951172 17.49560547 C-40.23125556 16.31861158 -38.21174843 15.14375986 -36.19091797 13.97119141 C-31.42682536 11.20502041 -26.68483258 8.4124174 -21.98388672 5.54003906 C-21.11997314 5.01949951 -20.25605957 4.49895996 -19.3659668 3.96264648 C-17.75722266 2.99209489 -16.15614324 2.00867276 -14.56469727 1.01000977 C-13.85095947 0.58292725 -13.13722168 0.15584473 -12.40185547 -0.28417969 C-11.48412354 -0.84963501 -11.48412354 -0.84963501 -10.54785156 -1.42651367 C-6.78473046 -2.66725613 -3.52593654 -1.55011917 0 0 Z " fill="#0991A3" transform="translate(1127.50341796875,814.1005859375)"/>
<path d="M0 0 C2.85630739 1.40581607 5.65227811 2.87598694 8.43481445 4.42333984 C9.54912842 5.04200928 10.66344238 5.66067871 11.81152344 6.2980957 C13.00379218 6.96461112 14.19592794 7.6313645 15.38793945 8.29833984 C16.62239569 8.98657253 17.85685207 9.67480495 19.09130859 10.36303711 C26.1148606 14.28638531 33.09651134 18.27223704 40.00976562 22.38720703 C46.69232127 26.35761595 53.44622842 30.20167393 60.20043945 34.04833984 C69.06666426 39.09787387 77.90207223 44.19355649 86.70043945 49.36083984 C96.24149111 54.95834168 105.88691885 60.34905645 115.57177734 65.69311523 C122.98766053 69.79582372 130.33318314 74.00121009 137.63793945 78.29833984 C146.4093504 83.4547859 155.24427492 88.48187496 164.13793945 93.42333984 C165.26586914 94.05111328 166.39379883 94.67888672 167.5559082 95.32568359 C180.61891268 102.91936843 180.61891268 102.91936843 195.20043945 105.61083984 C195.86624023 105.63984375 196.53204102 105.66884766 197.21801758 105.69873047 C207.61750961 105.82760883 216.50544931 99.92474253 225.26293945 94.92333984 C226.34905518 94.309021 227.4351709 93.69470215 228.55419922 93.06176758 C237.92943713 87.74273845 247.24180008 82.31652177 256.5402832 76.86474609 C262.8884056 73.14499072 269.26156058 69.46938735 275.63793945 65.79833984 C283.98603643 60.99001942 292.32042334 56.15936839 300.63793945 51.29833984 C310.04925292 45.79806034 319.48520825 40.34174746 328.93139648 34.90161133 C335.15912274 31.31261843 341.37628754 27.70655817 347.57983398 24.07592773 C350.50779581 22.36384751 353.43980981 20.65887486 356.37231445 18.95458984 C360.33535758 16.64984136 364.28389728 14.32268778 368.22250366 11.97657776 C370.77255712 10.46192813 373.33070547 8.96131912 375.89044189 7.46310425 C377.12816535 6.73450597 378.36242807 5.999993 379.59295654 5.25930786 C381.30971271 4.22695606 383.04001868 3.21724003 384.77075195 2.20849609 C385.75962402 1.62205322 386.74849609 1.03561035 387.76733398 0.43139648 C391.2852125 -0.95714529 393.02973596 -0.73625331 396.63793945 0.29833984 C399.12890625 1.4465332 399.12890625 1.4465332 401.5871582 2.88818359 C402.50827393 3.42032471 403.42938965 3.95246582 404.37841797 4.50073242 C405.35093506 5.07331787 406.32345215 5.64590332 407.32543945 6.23583984 C409.3892021 7.42826882 411.45432749 8.61834214 413.52075195 9.80615234 C414.54974609 10.3981543 415.57874023 10.99015625 416.63891602 11.60009766 C420.94200651 14.03678746 425.3115755 16.33342419 429.70043945 18.61083984 C431.23062838 19.41506895 432.76058264 20.21974472 434.2902832 21.02490234 C436.45146305 22.16054346 438.61527773 23.28689868 440.79467773 24.38720703 C442.79621783 25.39846244 444.78002109 26.43866336 446.76293945 27.48583984 C448.43743164 28.34242188 448.43743164 28.34242188 450.14575195 29.21630859 C452.63793945 31.29833984 452.63793945 31.29833984 453.81762695 34.72412109 C453.63793945 38.29833984 453.63793945 38.29833984 451.9699707 40.80224609 C447.32272727 44.71932229 441.64927067 47.37585674 436.32543945 50.23583984 C433.86714141 51.57491007 431.41264993 52.92088737 428.95825195 54.26708984 C428.33880203 54.60594711 427.71935211 54.94480438 427.08113098 55.29393005 C421.22650864 58.50432181 415.45545475 61.85033646 409.70043945 65.23583984 C401.12702586 70.26959427 392.52366193 75.24737217 383.88793945 80.17333984 C383.30410492 80.50646179 382.72027039 80.83958374 382.1187439 81.18280029 C379.14997574 82.87650912 376.18074316 84.56940134 373.21118164 86.26171875 C367.30992269 89.62486028 361.41095933 92.99202159 355.51293945 96.36083984 C354.93324402 96.69193756 354.35354858 97.02303528 353.75628662 97.36416626 C342.10288656 104.02154268 330.4761555 110.72475225 318.85571289 117.43945312 C312.37038606 121.18598412 305.88207788 124.9273507 299.39404297 128.66918945 C293.93841412 131.81595709 288.48413036 134.96501252 283.0324707 138.11865234 C271.71415293 144.66298428 260.3782014 151.1721549 248.98461914 157.5847168 C243.4293272 160.71258769 237.89602118 163.87509845 232.37792969 167.06811523 C228.93731861 169.05053717 225.48175794 171.00548204 222.02026367 172.95117188 C220.47971798 173.82232694 218.94445087 174.70291295 217.41577148 175.59472656 C207.8471383 181.1567566 199.97505177 184.35963299 188.63793945 182.29833984 C181.67881553 180.0433916 175.42033552 176.6817311 169.13793945 172.98583984 C168.24558594 172.46876465 167.35323242 171.95168945 166.43383789 171.41894531 C164.50744266 170.30221843 162.58268498 169.18266277 160.65942383 168.06054688 C155.4110768 164.99957654 150.14925312 161.96195109 144.88793945 158.92333984 C143.25042725 157.9763623 143.25042725 157.9763623 141.57983398 157.01025391 C134.09226201 152.68859759 126.56557573 148.44258085 119.01293945 144.23583984 C109.89812413 139.15710773 100.8603923 133.96136199 91.85913086 128.68432617 C84.22966597 124.21532095 76.56800668 119.80463344 68.88793945 115.42333984 C68.30362152 115.0899762 67.71930359 114.75661255 67.11727905 114.41314697 C64.14601965 112.71830494 61.17430673 111.02426 58.20239258 109.33056641 C51.76257959 105.65991702 45.3283183 101.97954073 38.89306641 98.30090332 C37.1466009 97.30259149 35.40009771 96.30434563 33.65356445 95.30615234 C33.07687012 94.97655518 32.50017578 94.64695801 31.90600586 94.30737305 C28.36698322 92.28514491 24.8266459 90.26523875 21.2853241 88.24703979 C18.31910551 86.55654909 15.35338826 84.86518049 12.38793945 83.17333984 C11.80499115 82.84078186 11.22204285 82.50822388 10.62142944 82.16558838 C1.55749422 76.99226527 -7.46171482 71.74554262 -16.46289062 66.46386719 C-24.87271624 61.54574989 -33.36773043 56.78616681 -41.90380859 52.09082031 C-56.84407545 43.81632495 -56.84407545 43.81632495 -60.36206055 40.29833984 C-61.20182547 35.3437268 -61.20182547 35.3437268 -60.36206055 32.29833984 C-54.07439914 26.26242657 -44.69407198 22.63672738 -36.98706055 18.61083984 C-27.14518286 13.45063489 -17.39921052 8.22406397 -8.03442383 2.22143555 C-2.9657329 -0.8809836 -2.9657329 -0.8809836 0 0 Z " fill="#043F65" transform="translate(728.362060546875,907.70166015625)"/>
<path d="M0 0 C1.00732178 0.00966797 2.01464355 0.01933594 3.05249023 0.02929688 C6.01559728 0.07638638 8.97563269 0.15305866 11.9375 0.25 C13.10539063 0.28770508 13.10539063 0.28770508 14.296875 0.32617188 C38.5773069 1.41170213 63.50527698 13.68273971 80.14453125 31.1796875 C92.55312653 45.50769512 101.9375 64.06465518 101.9375 83.25 C85.4375 83.25 68.9375 83.25 51.9375 83.25 C50.2875 79.29 48.6375 75.33 46.9375 71.25 C42.2494245 62.81344218 36.4269494 57.7014878 27.9375 53.25 C27.16148437 52.84007812 26.38546875 52.43015625 25.5859375 52.0078125 C11.77102686 45.3200289 -3.59833248 45.97259179 -18.0625 50.25 C-32.18519228 55.64985293 -42.33888551 66.0730562 -48.875 79.625 C-58.80047027 103.32248957 -59.52693813 132.00610445 -51.0625 156.25 C-50.65515625 157.42691406 -50.2478125 158.60382813 -49.828125 159.81640625 C-47.36510757 166.2058573 -44.13335923 171.7598412 -40.0625 177.25 C-39.010625 178.7659375 -39.010625 178.7659375 -37.9375 180.3125 C-30.23516983 189.11866729 -18.77708603 194.57477784 -7.23925781 195.46875 C10.36208306 196.38178141 10.36208306 196.38178141 26.9375 191.25 C27.81019531 190.82589844 28.68289063 190.40179687 29.58203125 189.96484375 C42.30760139 183.11554888 47.5266487 172.48255389 51.9375 159.25 C68.7675 159.25 85.5975 159.25 102.9375 159.25 C99.37773116 184.16838188 88.65766615 207.72347058 68.33544922 223.49316406 C56.2457387 232.29152862 42.55869133 238.24032582 27.9375 241.25 C27.33156006 241.41701416 26.72562012 241.58402832 26.10131836 241.75610352 C18.90339899 243.63523966 11.77871013 243.5948024 4.375 243.5625 C3.70698364 243.56034485 3.03896729 243.5581897 2.35070801 243.55596924 C-7.77160045 243.50350476 -17.26598951 243.02497722 -27.0625 240.25 C-27.76697266 240.05664062 -28.47144531 239.86328125 -29.19726562 239.6640625 C-45.47841477 235.096883 -59.50703643 227.66213299 -72.0625 216.25 C-72.69285156 215.68925781 -73.32320312 215.12851562 -73.97265625 214.55078125 C-88.93832124 200.47146544 -98.84348499 180.8992796 -104.0625 161.25 C-104.339729 160.29262939 -104.339729 160.29262939 -104.62255859 159.31591797 C-114.28163564 125.16973113 -109.0743025 84.65043112 -92.29663086 53.68774414 C-79.45665928 31.06579281 -58.20230402 12.22490762 -32.9140625 5.00390625 C-29.66204097 4.14428467 -26.39627813 3.36285307 -23.1027832 2.67626953 C-21.64696883 2.37211111 -20.1952769 2.04793748 -18.74682617 1.71044922 C-12.44352984 0.30805756 -6.44711806 -0.06579251 0 0 Z " fill="#FBFBFC" transform="translate(596.0625,472.75)"/>
<path d="M0 0 C51.81 0 103.62 0 157 0 C157 14.85 157 29.7 157 45 C121.69 45 86.38 45 50 45 C50 62.16 50 79.32 50 97 C80.03 97 110.06 97 141 97 C141 111.52 141 126.04 141 141 C111.3 141 81.6 141 51 141 C51 171.69 51 202.38 51 234 C34.17 234 17.34 234 0 234 C0 156.78 0 79.56 0 0 Z " fill="#FBFCFC" transform="translate(313,478)"/>
<path d="M0 0 C16.83 0 33.66 0 51 0 C51 77.22 51 154.44 51 234 C34.17 234 17.34 234 0 234 C0 156.78 0 79.56 0 0 Z " fill="#FBFBFC" transform="translate(220,478)"/>
<path d="M0 0 C1.62817383 2.23388672 1.62817383 2.23388672 3.20703125 5.1796875 C3.79419922 6.25476563 4.38136719 7.32984375 4.98632812 8.4375 C5.8902832 10.1390625 5.8902832 10.1390625 6.8125 11.875 C14.73271418 28.77953514 14.73271418 28.77953514 28 41 C30.6253119 41.31453722 30.6253119 41.31453722 33.625 41.375 C34.62789062 41.42398438 35.63078125 41.47296875 36.6640625 41.5234375 C41.43837499 40.7743065 44.47220554 39.33559622 48 36 C51.11317692 31.61950558 53.65007199 26.97474063 56.1875 22.25 C56.87772935 20.99898971 57.56977583 19.74898021 58.26367188 18.5 C59.59223027 16.1015406 60.91007573 13.69779964 62.21630859 11.28710938 C64.44782382 7.17471942 66.72000389 3.08564429 69 -1 C74.42081025 -1.34693186 78.83958809 -0.13318653 83.9375 1.5 C84.77144287 1.76699707 85.60538574 2.03399414 86.46459961 2.30908203 C102.69887182 7.7334138 118.09499036 16.18998072 126 32 C127.1028044 41.21629395 124.98621128 46.80888859 119.44921875 54.01953125 C103.01592927 72.49331788 73.23962301 78.74459517 49.68640137 80.13674927 C44.12506495 80.38152381 38.56614995 80.43962532 33 80.4375 C32.15304565 80.43823517 31.30609131 80.43897034 30.43347168 80.43972778 C15.84205244 80.40665427 2.06652777 79.13357361 -12 75 C-12.8751123 74.74299316 -13.75022461 74.48598633 -14.65185547 74.22119141 C-28.45353131 69.98950875 -45.16700963 63.00867712 -53.25 50.4375 C-53.75015625 49.67308594 -54.2503125 48.90867187 -54.765625 48.12109375 C-57.87198714 42.7832626 -57.75524814 36.98964123 -57 31 C-51.96437752 18.40099198 -38.88558975 11.06492915 -27.09326172 5.87255859 C-6.50537351 -2.70932996 -6.50537351 -2.70932996 0 0 Z " fill="#7DAD3E" transform="translate(890,713)"/>
<path d="M0 0 C0.84240234 -0.00773437 1.68480469 -0.01546875 2.55273438 -0.0234375 C18.18845081 0.02470943 29.09474573 6.32100105 40.0625 17.25 C40.90941406 18.06210937 40.90941406 18.06210937 41.7734375 18.890625 C49.03540811 26.49840373 54.13067063 37.83045343 55.0625 48.25 C55.18431641 49.48556641 55.18431641 49.48556641 55.30859375 50.74609375 C56.05449528 65.95796437 50.4910327 79.05199505 40.8125 90.4375 C30.15500501 101.76996967 16.81301094 108.05953759 1.20141602 108.59350586 C-12.49931617 108.79524019 -23.18079185 104.81146159 -33.9375 96.25 C-34.989375 95.486875 -36.04125 94.72375 -37.125 93.9375 C-46.46841981 85.00934329 -53.14029937 71.6404022 -54.23828125 58.70703125 C-54.29342247 41.5581114 -49.74260646 27.88208415 -37.9375 15.25 C-26.8410042 4.87995237 -15.12804533 -0.13826089 0 0 Z " fill="#FCFDFC" transform="translate(923.9375,464.75)"/>
<path d="M0 0 C0.99 0.66 1.98 1.32 3 2 C0.69 4.64 -1.62 7.28 -4 10 C-4.99 9.67 -5.98 9.34 -7 9 C-4.69 6.03 -2.38 3.06 0 0 Z " fill="#16486E" transform="translate(559,534)"/>
<path d="M0 0 C0.99 0.66 1.98 1.32 3 2 C0.36 4.64 -2.28 7.28 -5 10 C-5.66 9.01 -6.32 8.02 -7 7 C-4.69 4.69 -2.38 2.38 0 0 Z " fill="#174569" transform="translate(133,356)"/>
<path d="M0 0 C0.33 0 0.66 0 1 0 C1 5.61 1 11.22 1 17 C-2.2268999 12.6974668 -2.49542558 12.05334093 -2 7 C-1.43884633 4.61629596 -0.74762109 2.33631589 0 0 Z " fill="#04365C" transform="translate(827,339)"/>
<path d="M0 0 C-2.92405081 2.4908581 -5.16193144 3.59599278 -9 4 C-9.66 3.67 -10.32 3.34 -11 3 C-11.33 3.66 -11.66 4.32 -12 5 C-12.66 4.34 -13.32 3.68 -14 3 C-12.42274653 2.29866401 -10.83788667 1.614417 -9.25 0.9375 C-7.92742188 0.36322266 -7.92742188 0.36322266 -6.578125 -0.22265625 C-3.84743691 -1.04600008 -2.63098653 -0.9773992 0 0 Z " fill="#8EBA5A" transform="translate(877,716)"/>
<path d="M0 0 C0.66 0 1.32 0 2 0 C2 1.65 2 3.3 2 5 C5.465 6.98 5.465 6.98 9 9 C7.375 9.75 7.375 9.75 5 10 C1.75 8.375 1.75 8.375 -1 6 C-1.4375 3.3125 -1.4375 3.3125 -1 1 C-0.67 0.67 -0.34 0.34 0 0 Z " fill="#82AD48" transform="translate(669,758)"/>
<path d="M0 0 C4.62 2.31 9.24 4.62 14 7 C9.80761095 8.39746302 7.89298197 6.84031875 4 5 C3.34 4.67 2.68 4.34 2 4 C2 3.34 2 2.68 2 2 C1.01 1.67 0.02 1.34 -1 1 C-0.67 0.67 -0.34 0.34 0 0 Z " fill="#144068" transform="translate(893,1002)"/>
<path d="M0 0 C0.66 0.99 1.32 1.98 2 3 C1.390625 5.41015625 1.390625 5.41015625 0.25 8.0625 C-0.11609375 8.94035156 -0.4821875 9.81820312 -0.859375 10.72265625 C-2 13 -2 13 -4 15 C-3.43179252 9.54520815 -2.05362055 5.08940744 0 0 Z " fill="#C4D0D9" transform="translate(497,541)"/>
<path d="M0 0 C3.01217112 0.64449607 5.51655836 1.65022182 8.25 3.0625 C8.95640625 3.42472656 9.6628125 3.78695312 10.390625 4.16015625 C10.92171875 4.43730469 11.4528125 4.71445312 12 5 C11.01 5.66 10.02 6.32 9 7 C7.4972763 6.02501855 5.99788037 5.04490611 4.5 4.0625 C3.6646875 3.51722656 2.829375 2.97195313 1.96875 2.41015625 C1.3190625 1.94480469 0.669375 1.47945312 0 1 C0 0.67 0 0.34 0 0 Z " fill="#134169" transform="translate(835,970)"/>
<path d="M0 0 C1.65 0.33 3.3 0.66 5 1 C3.02 3.31 1.04 5.62 -1 8 C-1.66 7.67 -2.32 7.34 -3 7 C-1.125 2.25 -1.125 2.25 0 0 Z " fill="#8BBA50" transform="translate(996,648)"/>
<path d="M0 0 C0.66 0 1.32 0 2 0 C0.31326082 4.49797113 -1.81673892 8.72886302 -4 13 C-5.0169313 10.34501768 -5.13022151 9.30844625 -4.00390625 6.640625 C-3.52824219 5.85171875 -3.05257812 5.0628125 -2.5625 4.25 C-2.08941406 3.45078125 -1.61632812 2.6515625 -1.12890625 1.828125 C-0.75636719 1.22484375 -0.38382813 0.6215625 0 0 Z " fill="#85B24F" transform="translate(982,638)"/>
<path d="M0 0 C3.94859783 0.5640854 6.70879046 1.7431706 10 4 C10 4.33 10 4.66 10 5 C7.03 4.67 4.06 4.34 1 4 C1.33 3.01 1.66 2.02 2 1 C1.34 0.67 0.68 0.34 0 0 Z " fill="#14385F" transform="translate(697,893)"/>
<path d="M0 0 C0 0.66 0 1.32 0 2 C-7.42857143 6.42857143 -7.42857143 6.42857143 -11 7 C-4.36842105 0 -4.36842105 0 0 0 Z " fill="#86B54C" transform="translate(855,724)"/>
<path d="M0 0 C0.33 0 0.66 0 1 0 C1.10884119 1.41493551 1.18597617 2.83232943 1.25 4.25 C1.29640625 5.03890625 1.3428125 5.8278125 1.390625 6.640625 C1 9 1 9 -3 13 C-2.01 8.71 -1.02 4.42 0 0 Z " fill="#466784" transform="translate(696,643)"/>
<path d="M0 0 C0.99 0.99 1.98 1.98 3 3 C1.84414715 6.91211733 0.64465038 9.8745041 -2 13 C-1.48041715 8.62065881 -0.94324258 4.31196609 0 0 Z " fill="#D5DDE5" transform="translate(492,556)"/>
<path d="M0 0 C5.07612318 -0.61528766 7.82982006 1.38341651 12 4 C7.79238221 5.40253926 5.88264416 3.90602531 2 2 C1.34 1.34 0.68 0.68 0 0 Z " fill="#144269" transform="translate(856,983)"/>
<path d="M0 0 C0.33 0 0.66 0 1 0 C2.23076923 6.4 2.23076923 6.4 1.0625 9.4375 C0.711875 9.953125 0.36125 10.46875 0 11 C-0.66 11 -1.32 11 -2 11 C-1.125 3.375 -1.125 3.375 0 0 Z " fill="#365B7D" transform="translate(544,558)"/>
<path d="M0 0 C0 0.99 0 1.98 0 3 C-1.98 3.66 -3.96 4.32 -6 5 C-6.66 4.34 -7.32 3.68 -8 3 C-2.25 0 -2.25 0 0 0 Z " fill="#225175" transform="translate(687,930)"/>
<path d="M0 0 C0.99 0 1.98 0 3 0 C4.75 2.3125 4.75 2.3125 6 5 C5.67 5.99 5.34 6.98 5 8 C2.27573689 5.64722731 1.1858237 3.37503669 0 0 Z " fill="#82B347" transform="translate(899,734)"/>
<path d="M0 0 C0.66 0.33 1.32 0.66 2 1 C0.35 2.65 -1.3 4.3 -3 6 C-4.32 5.34 -5.64 4.68 -7 4 C-1.7265625 0.77734375 -1.7265625 0.77734375 0 0 Z " fill="#88B64F" transform="translate(727,724)"/>
<path d="M0 0 C3.3 1.65 6.6 3.3 10 5 C6 6 6 6 2.75 4.1875 C1.8425 3.465625 0.935 2.74375 0 2 C0 1.34 0 0.68 0 0 Z " fill="#15416B" transform="translate(872,990)"/>
<path d="M0 0 C0.66 0.33 1.32 0.66 2 1 C1.01 2.98 0.02 4.96 -1 7 C-1.99 7 -2.98 7 -4 7 C-2.92598892 4.08482708 -2.22189824 2.22189824 0 0 Z " fill="#1C476C" transform="translate(124,366)"/>
<path d="M0 0 C-0.5625 1.9375 -0.5625 1.9375 -2 4 C-5.625 4.75 -5.625 4.75 -9 5 C-2.40909091 0 -2.40909091 0 0 0 Z " fill="#87B74E" transform="translate(1008,787)"/>
<path d="M0 0 C0.66 0.33 1.32 0.66 2 1 C0.3125 3.0625 0.3125 3.0625 -2 5 C-4.75 4.75 -4.75 4.75 -7 4 C-4.61426621 2.10786631 -2.92824652 0.97608217 0 0 Z " fill="#355E7E" transform="translate(643,707)"/>
<path d="M0 0 C0 0.66 0 1.32 0 2 C-0.66 2 -1.32 2 -2 2 C-2.33 2.99 -2.66 3.98 -3 5 C-3.99 4.67 -4.98 4.34 -6 4 C-6.33 4.99 -6.66 5.98 -7 7 C-7.33 6.01 -7.66 5.02 -8 4 C-2.25 0 -2.25 0 0 0 Z " fill="#87B64E" transform="translate(835,663)"/>
<path d="M0 0 C1.14926266 0.95421808 2.29430541 1.91352045 3.4375 2.875 C4.07558594 3.40867187 4.71367188 3.94234375 5.37109375 4.4921875 C7 6 7 6 8 8 C4.18315774 6.44499019 1.80804268 3.96404505 -1 1 C-0.67 0.67 -0.34 0.34 0 0 Z " fill="#0D3F6A" transform="translate(803,357)"/>
<path d="M0 0 C-0.33 0.99 -0.66 1.98 -1 3 C-3.64 3.33 -6.28 3.66 -9 4 C-3.7826087 0 -3.7826087 0 0 0 Z " fill="#274F74" transform="translate(136,173)"/>
<path d="M0 0 C0.99 0 1.98 0 3 0 C2.67 2.31 2.34 4.62 2 7 C0 5 0 5 -0.125 2.375 C-0.08375 1.59125 -0.0425 0.8075 0 0 Z " fill="#124468" transform="translate(107,346)"/>
</svg>
