<?xml version="1.0" encoding="UTF-8"?>
<svg version="1.1" xmlns="http://www.w3.org/2000/svg" width="1254" height="1254">
<path d="M0 0 C413.82 0 827.64 0 1254 0 C1254 413.82 1254 827.64 1254 1254 C840.18 1254 426.36 1254 0 1254 C0 840.18 0 426.36 0 0 Z " fill="#FCFCFC" transform="translate(0,0)"/>
<path d="M0 0 C1.09818364 -0.00265183 2.19636728 -0.00530365 3.32782921 -0.00803584 C7.02758778 -0.01572824 10.72731316 -0.01628799 14.4270792 -0.01688576 C17.09856418 -0.02090041 19.77004602 -0.02530207 22.44152933 -0.03016531 C29.02650991 -0.04122964 35.61148515 -0.04688674 42.19647338 -0.05087419 C50.08346815 -0.05588713 57.97045262 -0.06661523 65.8574413 -0.07735593 C84.92109727 -0.10297548 103.98475726 -0.11801959 123.0484255 -0.13086639 C129.36313393 -0.13512198 135.67784207 -0.13968773 141.99255013 -0.14444971 C175.57530473 -0.16971026 209.15805983 -0.1917562 242.74082184 -0.20417786 C250.52031996 -0.20709913 258.29981806 -0.21006667 266.07931614 -0.21308327 C267.04581034 -0.21345418 268.01230455 -0.21382509 269.00808646 -0.21420723 C300.34084331 -0.22636149 331.67354398 -0.25730423 363.00627445 -0.29900479 C395.22334831 -0.34180406 427.44039249 -0.36842031 459.65749554 -0.37365257 C464.20909347 -0.374393 468.76069136 -0.37530368 473.31228924 -0.37631035 C474.20806355 -0.37650096 475.10383787 -0.37669158 476.02675686 -0.37688797 C490.43405067 -0.38039949 504.84127402 -0.40068783 519.24854197 -0.42710699 C533.7346124 -0.45326978 548.22060154 -0.46097134 562.70669221 -0.4500057 C571.30864803 -0.44403556 579.91032781 -0.45190537 588.51224178 -0.47983653 C594.26498737 -0.49713088 600.01754544 -0.49610384 605.7702952 -0.48046885 C609.04377665 -0.47208483 612.31663017 -0.47416876 615.59008276 -0.4930803 C636.33417091 -0.60557347 652.95168923 1.42678327 668.79293919 16.07451439 C682.57374486 30.44090671 685.63254814 47.27910496 685.54889011 66.56476402 C685.55235185 68.31207459 685.55711987 70.05938296 685.56307185 71.80668682 C685.57554045 76.58126372 685.56943039 81.35565962 685.56011319 86.13023698 C685.55330607 91.28980606 685.56381213 96.44934473 685.57205296 101.6089077 C685.58537447 111.70560041 685.58251967 121.80222613 685.57381503 131.89892144 C685.56703305 140.10602202 685.566124 148.31310387 685.56938648 156.52020645 C685.56984618 157.68938243 685.57030588 158.8585584 685.57077951 160.06316395 C685.57173871 162.4384935 685.57271135 164.81382305 685.57369728 167.18915259 C685.58224645 189.44853427 685.57242427 211.70787886 685.55629618 233.96725445 C685.54289168 253.05860902 685.54522312 272.14990886 685.55905247 291.24126244 C685.5751136 313.4238991 685.58142437 335.60650327 685.57221568 357.78914493 C685.57126005 360.15530931 685.57031694 362.5214737 685.56938648 364.88763809 C685.56892366 366.05176905 685.56846083 367.21590001 685.56798398 368.41530766 C685.56539583 376.6111769 685.56976129 384.8070255 685.57682514 393.00289154 C685.58524617 402.99278039 685.5829472 412.98259853 685.56698291 422.97247929 C685.55910864 428.06751041 685.55599429 433.16242372 685.56593037 438.25745392 C685.57489504 442.92501645 685.5699152 447.59235239 685.55399771 452.25989448 C685.55065744 453.94477866 685.55232693 455.62968213 685.55962507 457.3145538 C685.62921447 474.72066489 682.31097682 489.10809678 670.16793919 502.13701439 C659.30819536 512.38017935 646.55718818 516.45169392 631.93895531 516.39428329 C630.24554737 516.39954241 630.24554737 516.39954241 628.51792917 516.40490776 C624.71956123 516.41424182 620.92134593 516.40929317 617.12297153 516.40443993 C614.37836131 516.40707124 611.63375901 516.41269631 608.88915318 516.41817057 C602.91375249 516.42847589 596.9383842 516.43131344 590.9629755 516.42925835 C582.07712601 516.42620974 573.19131241 516.43452926 564.30546989 516.4450076 C547.51176633 516.4643575 530.71807496 516.4699762 513.92436156 516.47112171 C500.95552033 516.47204055 487.98668388 516.47615594 475.0178442 516.48252296 C471.28570134 516.48431804 467.55355847 516.48609766 463.8214156 516.48787272 C462.42970609 516.48853586 462.42970609 516.48853586 461.00988122 516.48921241 C434.90922606 516.5015223 408.80857255 516.50941339 382.70791435 516.50852585 C381.72369415 516.50849469 380.73947395 516.50846353 379.7254289 516.50843143 C374.73691841 516.50826522 369.74840793 516.50806713 364.75989745 516.50786202 C363.76915038 516.50782213 362.77840331 516.50778224 361.7576336 516.50774114 C359.75410087 516.50766026 357.75056814 516.50757667 355.74703541 516.50749035 C324.57620148 516.50626488 293.40541106 516.52127678 262.23458958 516.54863548 C227.2191406 516.57935591 192.20372022 516.59656799 157.18825692 516.59470904 C153.45454228 516.59455978 149.72082764 516.59446236 145.987113 516.59440041 C144.60809754 516.59436544 144.60809754 516.59436544 143.20122318 516.59432977 C128.4056672 516.59426822 113.610149 516.60704078 98.81460426 516.62426494 C83.94447998 516.64121786 69.07441097 516.64319793 54.20428238 516.63004629 C45.37066907 516.62265479 36.53722363 516.62632106 27.70362811 516.64593097 C21.80032008 516.65792833 15.89713366 516.65534264 9.99383121 516.64098998 C6.63193037 516.63322466 3.27061926 516.63389587 -0.09130069 516.64790468 C-3.71912178 516.66202062 -7.34607935 516.65144193 -10.97387123 516.63479233 C-12.0088402 516.64472869 -13.04380917 516.65466505 -14.11014083 516.66490251 C-27.17524168 516.53820737 -38.61733799 511.60067774 -48.30862331 502.91826439 C-57.8975037 493.04075549 -63.0772261 480.29678558 -63.08653641 466.56438637 C-63.08974289 465.84288033 -63.09294936 465.12137429 -63.09625301 464.37800443 C-63.10452353 461.97160333 -63.09863915 459.56545304 -63.09275723 457.15904808 C-63.09577926 455.41177894 -63.09966901 453.66451111 -63.10434979 451.91724563 C-63.11463194 447.12419765 -63.11244739 442.33122446 -63.1081692 437.53817034 C-63.10570235 432.36556409 -63.11471569 427.19297586 -63.12220669 422.02037621 C-63.13495731 411.88939301 -63.13674688 401.75843631 -63.13440643 391.62744644 C-63.13262334 383.39165723 -63.13437271 375.15587606 -63.13863087 366.92008781 C-63.13952365 365.16178096 -63.13952365 365.16178096 -63.14043447 363.36795275 C-63.14164623 360.98658579 -63.14286036 358.60521884 -63.14407685 356.22385189 C-63.154954 333.88959502 -63.15278919 311.55535325 -63.146692 289.22109553 C-63.14152397 268.79546827 -63.15277499 248.36988871 -63.17179022 227.94427088 C-63.19116968 206.96640495 -63.19942435 185.98856158 -63.19566697 165.01068664 C-63.19375493 153.23521655 -63.19624272 141.45978705 -63.21038151 129.68432426 C-63.2222977 119.65850591 -63.22369756 109.63275313 -63.21159134 99.60693386 C-63.20570408 94.49357618 -63.20459905 89.38033843 -63.21659374 84.26698875 C-63.22745721 79.58133245 -63.22434357 74.89589614 -63.21033206 70.21025011 C-63.2076864 68.51984288 -63.21004752 66.82941838 -63.21806792 65.1390281 C-63.30014057 46.54285179 -59.2973007 31.20138572 -46.30056667 17.32256126 C-33.51619927 4.48434227 -17.60582911 -0.02065066 0 0 Z " fill="#044469" transform="translate(304.8320608139038,648.8629856109619)"/>
<path d="M0 0 C1.48326279 0.00102722 1.48326279 0.00102722 2.99649048 0.0020752 C22.2915739 0.04622182 41.34995024 0.9094321 60.5 3.3125 C61.34601776 3.4174881 62.19203552 3.5224762 63.06369019 3.63064575 C82.1856136 6.03976477 100.93259315 9.85682681 119.6875 14.25 C120.80350586 14.50894043 121.91951172 14.76788086 123.06933594 15.03466797 C135.2417917 17.90538148 147.15639286 21.5666792 159.0625 25.375 C159.72821014 25.58719177 160.39392029 25.79938354 161.07980347 26.01800537 C167.80468619 28.17187943 174.37809605 30.40466383 180.78222656 33.38769531 C183.57842563 34.65322262 186.46385562 35.59680072 189.375 36.5625 C195.39354168 38.68179499 200.95903485 41.2545063 206.62109375 44.18359375 C210.61763838 46.24217406 214.68139441 48.14603058 218.75073242 50.05566406 C256.59532532 67.86266346 291.97077633 90.37768935 323.6875 117.6875 C326.60515446 120.17966319 329.57271052 122.59516933 332.5625 125 C336.2778726 128.02176469 339.71045258 131.15170384 343.03515625 134.59375 C344.72507536 136.28766419 346.48809906 137.8274832 348.3125 139.375 C356.40299289 146.361527 364.03703522 154.08571476 370.953125 162.234375 C373.11970678 164.75229437 375.37366265 167.18264009 377.625 169.625 C382.21611387 174.670407 386.49070273 179.87553003 390.6875 185.25 C391.70231394 186.51237118 392.71801165 187.7740322 393.734375 189.03515625 C425.42271382 228.67077287 453.92468843 276.98970159 468.8359375 325.71484375 C469.68025988 328.36673874 469.68025988 328.36673874 471.046875 331.26953125 C473.40082558 336.66904203 474.91649825 342.35459605 476.5625 348 C476.91401123 349.19923096 477.26552246 350.39846191 477.62768555 351.6340332 C481.69080818 365.58032627 485.56291596 379.44530117 488.07421875 393.76171875 C488.56670932 396.56295492 489.1043242 399.34187648 489.6875 402.125 C492.48554978 416.07031899 494.46890316 430.1013432 495.875 444.25 C496.00482269 445.55161072 496.00482269 445.55161072 496.13726807 446.8795166 C499.79480223 484.5605649 498.42690947 522.84717468 492.6875 560.25 C492.52411133 561.33651855 492.36072266 562.42303711 492.19238281 563.54248047 C487.85035912 591.92615293 480.77875827 619.24348855 471.62597656 646.43017578 C470.86194882 648.72583666 470.12973318 651.0241695 469.4296875 653.33984375 C455.77012007 697.50577845 431.41568987 742.241482 403.00585938 778.55517578 C400.98505378 781.15303364 399.02674806 783.79675391 397.0625 786.4375 C395.6045143 788.37526161 394.14616531 790.31274992 392.6875 792.25 C392.25099121 792.83539551 391.81448242 793.42079102 391.36474609 794.02392578 C389.99915425 795.85386702 388.62534501 797.67738226 387.25 799.5 C386.82444824 800.07387451 386.39889648 800.64774902 385.96044922 801.23901367 C384.91694695 802.61338767 383.80755838 803.93726617 382.6875 805.25 C382.0275 805.25 381.3675 805.25 380.6875 805.25 C378.59692994 772.92072279 378.59692994 772.92072279 385.3125 765.0625 C386.83889697 763.3726864 388.40025273 761.73184067 389.99755859 760.10888672 C393.32400627 756.44989039 395.92214653 752.25290605 398.625 748.125 C399.51251953 746.78731567 399.51251953 746.78731567 400.41796875 745.42260742 C413.0237251 726.26110087 423.48902738 705.76721025 433.6875 685.25 C428.31189718 686.97787234 423.02675348 688.8648082 417.75 690.875 C410.15064974 693.757967 402.4891918 696.4556228 394.8125 699.125 C393.65242432 699.53057129 392.49234863 699.93614258 391.29711914 700.35400391 C390.21164795 700.72960449 389.12617676 701.10520508 388.0078125 701.4921875 C386.54239014 702.00048096 386.54239014 702.00048096 385.04736328 702.51904297 C382.6875 703.25 382.6875 703.25 380.6875 703.25 C380.6875 695.99 380.6875 688.73 380.6875 681.25 C392.40625 676.85546875 392.40625 676.85546875 394.26342773 676.15917969 C395.60421762 675.65627715 396.94486426 675.15299263 398.28540039 674.64941406 C401.65474827 673.38423939 405.02590529 672.12509963 408.40234375 670.87890625 C410.29094039 670.17935262 412.17952907 669.47772356 414.04394531 668.71606445 C418.27299581 667.01295117 422.36747895 665.85920829 426.83203125 664.9140625 C438.26397076 662.1321458 438.26397076 662.1321458 446.83953857 654.5401001 C452.20165239 644.60457553 454.57862922 633.17332024 457.18267822 622.2756958 C458.06925012 618.7181532 459.20257095 615.24465908 460.31811523 611.75415039 C464.6477734 597.91600056 467.08430996 583.48820271 469.6875 569.25 C469.89149414 568.1347998 470.09548828 567.01959961 470.30566406 565.87060547 C474.85724348 540.49035169 476.01267999 515.35537433 475.88311768 489.60583496 C475.87212884 486.8397871 475.87265437 484.07378709 475.87325573 481.30772114 C475.87291877 477.97205506 475.86410084 474.6364366 475.85546875 471.30078125 C475.85379951 469.46342155 475.85379951 469.46342155 475.85209656 467.58894348 C475.84252678 465.87876289 475.84252678 465.87876289 475.83276367 464.1340332 C475.82895187 463.13910355 475.82514008 462.14417389 475.82121277 461.11909485 C475.68031114 458.0957476 475.20764154 455.22900116 474.6875 452.25 C474.62227127 449.95916711 474.6016159 447.66664206 474.625 445.375 C474.63402344 444.22257812 474.64304687 443.07015625 474.65234375 441.8828125 C474.66974609 440.57957031 474.66974609 440.57957031 474.6875 439.25 C473.87410156 439.49234375 473.06070313 439.7346875 472.22265625 439.984375 C464.65098179 442.19881298 457.08030197 444.16538251 449.37524414 445.85449219 C445.39108514 446.74870916 445.39108514 446.74870916 441.625 448.28515625 C438.78610721 449.69887907 435.93395782 450.03360434 432.8125 450.5625 C427.33710862 451.52339227 421.93376212 452.63906651 416.52929688 453.94067383 C404.04058676 456.93697608 391.45062465 459.06587466 378.77832031 461.10668945 C377.30273318 461.34455638 375.82714723 461.58243067 374.3515625 461.8203125 C373.62702881 461.93660507 372.90249512 462.05289764 372.15600586 462.17271423 C367.21846639 462.97427587 362.30870982 463.88288918 357.3984375 464.8359375 C350.52182412 466.15902078 343.65355174 467.05212307 336.6875 467.75 C334.36181709 467.99455737 332.03629903 468.24068672 329.7109375 468.48828125 C328.55045898 468.61154785 327.38998047 468.73481445 326.19433594 468.86181641 C319.54836323 469.59748172 312.91814888 470.46233697 306.2890625 471.3359375 C305.3609375 471.45582031 304.4328125 471.57570313 303.4765625 471.69921875 C302.66912598 471.80580811 301.86168945 471.91239746 301.02978516 472.0222168 C298.56809589 472.26161184 296.1592327 472.28866367 293.6875 472.25 C293.6875 473.24 293.6875 474.23 293.6875 475.25 C229.3375 475.25 164.9875 475.25 98.6875 475.25 C98.6875 470.96 98.6875 466.67 98.6875 462.25 C99.63286621 462.2406543 100.57823242 462.23130859 101.55224609 462.22167969 C127.52851427 461.92847413 153.44080174 460.80483019 179.375 459.375 C180.17025337 459.33118195 180.96550674 459.28736389 181.7848587 459.24221802 C205.0281272 457.95841166 228.26743784 456.5985645 251.4987793 455.11376953 C252.89863319 455.02505081 252.89863319 455.02505081 254.32676697 454.93453979 C256.02663504 454.82649795 257.72640464 454.71688811 259.42604065 454.60525513 C263.52174537 454.34508993 267.58063746 454.19611274 271.6875 454.25 C267.38564546 403.32100451 260.76267515 352.36216759 245.5 303.375 C245.21447266 302.44921143 244.92894531 301.52342285 244.63476562 300.56958008 C239.17311884 283.02763298 233.65926962 265.3867687 226.66796875 248.38745117 C225.48775915 245.49629748 224.6875 243.40900574 224.6875 240.25 C223.73488281 240.4665625 222.78226563 240.683125 221.80078125 240.90625 C219.91939453 241.32390625 219.91939453 241.32390625 218 241.75 C216.75863281 242.0284375 215.51726563 242.306875 214.23828125 242.59375 C211.26351782 243.14354126 208.69381398 243.38795705 205.6875 243.25 C205.6875 243.91 205.6875 244.57 205.6875 245.25 C204.57632813 245.43175781 203.46515625 245.61351562 202.3203125 245.80078125 C192.97985553 247.27395282 192.97985553 247.27395282 183.875 249.75 C177.88286838 251.74039337 171.61245789 252.401452 165.37768555 253.24804688 C164.52988525 253.36470703 163.68208496 253.48136719 162.80859375 253.6015625 C162.0395874 253.70291504 161.27058105 253.80426758 160.47827148 253.90869141 C158.67080897 254.07928543 158.67080897 254.07928543 157.6875 255.25 C155.20888694 255.74698883 152.74674445 256.17443218 150.25 256.5625 C149.42870605 256.69076172 148.60741211 256.81902344 147.76123047 256.95117188 C133.45740896 259.10734715 119.06214956 260.65033574 104.6875 262.25 C103.43582031 262.38937988 102.18414063 262.52875977 100.89453125 262.67236328 C92.4981744 263.59600832 84.09598374 264.44466257 75.6875 265.25 C74.98778076 265.3178772 74.28806152 265.38575439 73.56713867 265.45568848 C68.99081313 265.8989106 64.41328471 266.32490457 59.8336792 266.73287964 C58.37176812 266.86458953 56.91018135 266.99997768 55.44903564 267.1399231 C41.11332868 268.50319952 27.20823299 268.25 12.6875 268.25 C12.6875 336.56 12.6875 404.87 12.6875 475.25 C5.7575 475.25 -1.1725 475.25 -8.3125 475.25 C-8.3125 406.61 -8.3125 337.97 -8.3125 267.25 C-20.1925 267.25 -32.0725 267.25 -44.3125 267.25 C-54.1962928 266.67325402 -64.02208369 266.01734176 -73.875 265.125 C-75.77755051 264.95993454 -75.77755051 264.95993454 -77.71853638 264.79153442 C-94.61613603 263.32336353 -111.45347617 261.55202842 -128.25 259.1875 C-129.0857254 259.06993347 -129.92145081 258.95236694 -130.78250122 258.83123779 C-146.40496237 256.5987053 -162.05698857 253.99986634 -177.3203125 249.95703125 C-180.99923553 249.08772959 -184.7091789 248.48485886 -188.4375 247.875 C-195.56481797 246.70491578 -202.42381967 244.96396516 -209.33642578 242.87548828 C-213.13499349 241.74861152 -216.36456062 241.14213513 -220.3125 241.25 C-230.65891786 267.87916676 -239.16539554 294.58890955 -246.3125 322.25 C-246.52503418 323.06694336 -246.73756836 323.88388672 -246.95654297 324.72558594 C-250.35749941 337.83080992 -253.29481441 351.05265501 -256.3125 364.25 C-262.9125 364.25 -269.5125 364.25 -276.3125 364.25 C-275.70253166 355.27806059 -274.14457438 346.64777791 -272.25 337.875 C-272.09699432 337.15957031 -271.94398865 336.44414062 -271.78634644 335.70703125 C-264.24797952 300.61371324 -252.75353107 266.85511976 -240.3125 233.25 C-241.04823242 233.07404297 -241.78396484 232.89808594 -242.54199219 232.71679688 C-249.64380653 230.98486762 -256.6085627 228.99922548 -263.5625 226.75 C-264.490625 226.45480469 -265.41875 226.15960938 -266.375 225.85546875 C-271.74909876 224.13241731 -277.05625644 222.30404068 -282.3125 220.25 C-283.63217773 219.73542236 -283.63217773 219.73542236 -284.97851562 219.21044922 C-298.45108825 213.90878346 -311.74971134 208.29502944 -324.875 202.1875 C-325.50776855 201.8933017 -326.14053711 201.59910339 -326.79248047 201.29598999 C-335.4590207 197.24754686 -343.94971213 192.95931529 -352.08813477 187.91772461 C-355.56838679 185.70655252 -355.56838679 185.70655252 -359.5234375 185.70703125 C-361.74274047 187.62105892 -363.4943212 189.63378482 -365.3125 191.9375 C-366.10269531 192.93265625 -366.89289063 193.9278125 -367.70703125 194.953125 C-368.12936035 195.49001953 -368.55168945 196.02691406 -368.98681641 196.58007812 C-370.33053063 198.27271262 -371.69854242 199.94264411 -373.07421875 201.609375 C-404.16900549 239.47967948 -427.59111302 283.57434324 -444.9375 329.25 C-445.28570801 330.16185059 -445.63391602 331.07370117 -445.99267578 332.01318359 C-451.91317645 347.85183517 -456.47996113 364.01145521 -460.4375 380.4375 C-460.65283386 381.32210907 -460.86816772 382.20671814 -461.09002686 383.11813354 C-464.47989972 397.07803464 -467.35522716 411.0086491 -469.3125 425.25 C-468.60689941 425.37479736 -467.90129883 425.49959473 -467.17431641 425.62817383 C-461.64784781 426.61721437 -456.16154353 427.68515671 -450.6875 428.9375 C-441.37257577 431.04502536 -432.03080127 433.02307764 -422.6875 435 C-421.92910828 435.16051849 -421.17071655 435.32103699 -420.38934326 435.48641968 C-416.03064108 436.40878179 -411.67161155 437.32957075 -407.3125 438.25 C-407.3125 445.18 -407.3125 452.11 -407.3125 459.25 C-413.09172363 459.25 -416.05283721 458.87265416 -421.3125 457.25 C-423.73410917 456.76725107 -426.16178945 456.31427617 -428.59375 455.88671875 C-437.73411385 454.23212992 -446.76610762 452.16312858 -455.8125 450.0625 C-457.42571262 449.69045751 -459.03899362 449.31871135 -460.65234375 448.94726562 C-464.53985497 448.05157305 -468.42643356 447.15193935 -472.3125 446.25 C-473.10528799 460.65016426 -473.54937712 475.01530562 -473.5625 489.4375 C-473.56500763 490.91879898 -473.56500763 490.91879898 -473.56756592 492.43002319 C-473.56930283 509.72913201 -472.60660083 526.76915884 -470.6796875 543.95458984 C-470.37102149 546.72478518 -470.09509176 549.4937175 -469.84375 552.26953125 C-468.77311356 563.50477974 -466.36209256 574.47605033 -463.92529297 585.48193359 C-463.39949994 587.85700983 -462.88725478 590.23443482 -462.37890625 592.61328125 C-458.24288414 611.49110283 -452.3279174 630.02551985 -445.75097656 648.18017578 C-445.27096191 649.51411377 -445.27096191 649.51411377 -444.78125 650.875 C-444.49701172 651.65101563 -444.21277344 652.42703125 -443.91992188 653.2265625 C-443.3125 655.25 -443.3125 655.25 -443.3125 658.25 C-442.78785156 658.36859375 -442.26320313 658.4871875 -441.72265625 658.609375 C-434.24293116 660.5975029 -426.86024074 663.43568157 -419.875 666.75 C-413.21930437 669.88853911 -406.31245013 672.00230959 -399.3125 674.25 C-399.3125 681.51 -399.3125 688.77 -399.3125 696.25 C-404.50042865 695.50886734 -407.83331937 694.86903812 -412.5 693 C-413.50417969 692.60296875 -414.50835937 692.2059375 -415.54296875 691.796875 C-420.81390077 689.64974308 -426.06131188 687.44484723 -431.3125 685.25 C-421.49270587 705.3186013 -421.49270587 705.3186013 -410.8125 724.9375 C-410.34553711 725.75371826 -409.87857422 726.56993652 -409.39746094 727.41088867 C-408.94661133 728.1866626 -408.49576172 728.96243652 -408.03125 729.76171875 C-407.59377441 730.520896 -407.15629883 731.28007324 -406.70556641 732.06225586 C-405.36749117 734.28041606 -405.36749117 734.28041606 -403.64990234 736.17407227 C-397.37657773 743.73439852 -398.64937001 752.52438513 -398.9375 761.8125 C-398.96764222 763.50581187 -398.99501051 765.19917552 -399.01953125 766.89257812 C-399.08518138 771.01301182 -399.18846029 775.13092745 -399.3125 779.25 C-404.0213404 774.61424688 -407.4367104 769.84195049 -410.99755859 764.29248047 C-412.49298091 761.96966148 -414.00689687 759.65930135 -415.51953125 757.34765625 C-426.64309853 740.23172065 -436.50439405 722.49644325 -445.39892578 704.12597656 C-446.29179504 702.29251655 -447.20515174 700.47045677 -448.12109375 698.6484375 C-460.51397007 673.60191945 -469.45949193 647.00751382 -477.3125 620.25 C-477.82647339 618.54589966 -477.82647339 618.54589966 -478.35083008 616.80737305 C-480.8173291 608.47768058 -482.73096243 600.11092441 -484.44018555 591.60131836 C-484.87279947 589.44845078 -485.31362319 587.2973938 -485.75585938 585.14648438 C-488.80320575 570.23705693 -491.5177065 555.41597606 -492.9375 540.25 C-493.05867187 539.03828125 -493.17984375 537.8265625 -493.3046875 536.578125 C-494.88386328 520.30574846 -495.64012129 504.0341958 -495.75 487.6875 C-495.75650574 486.73720917 -495.76301147 485.78691833 -495.76971436 484.80783081 C-495.83957863 462.1551602 -492.96578891 439.97480963 -489.65441895 417.60333252 C-489.34581547 415.4793011 -489.05535295 413.35416579 -488.77636719 411.22607422 C-487.73841932 403.43072041 -486.17874708 395.88629732 -484.3125 388.25 C-483.7729974 385.92358041 -483.23527896 383.59674645 -482.69921875 381.26953125 C-479.69534576 368.45628653 -476.50881697 355.8883242 -472.07446289 343.49487305 C-471.12212662 340.68912745 -470.27573098 337.85676845 -469.421875 335.01953125 C-467.44762494 328.55471146 -465.18517115 322.24173529 -462.75 315.9375 C-462.31945312 314.8222998 -461.88890625 313.70709961 -461.4453125 312.55810547 C-456.87688427 300.89511884 -451.71287351 289.54749361 -446.3125 278.25 C-445.91627441 277.40840332 -445.52004883 276.56680664 -445.11181641 275.69970703 C-435.32396406 254.96932546 -423.43450881 235.03915043 -410.3125 216.25 C-409.61761475 215.24283936 -409.61761475 215.24283936 -408.90869141 214.21533203 C-395.81278872 195.23770025 -381.36389378 177.63430191 -365.68457031 160.73974609 C-364.26446743 159.19784791 -362.86109265 157.64205415 -361.4609375 156.08203125 C-356.9797512 151.10293536 -352.4829816 146.33567987 -347.33984375 142.0234375 C-344.88060525 139.87219611 -342.60696992 137.57590102 -340.3125 135.25 C-336.13452267 131.03398342 -331.84024034 127.08359199 -327.3125 123.25 C-326.34570312 122.41726562 -325.37890625 121.58453125 -324.3828125 120.7265625 C-299.33215086 99.22123878 -271.96967182 80.58872001 -243.3125 64.25 C-242.37164551 63.7122998 -241.43079102 63.17459961 -240.46142578 62.62060547 C-217.69873317 49.70816245 -193.91752647 39.13701861 -169.3125 30.25 C-167.83444381 29.70364307 -166.35657405 29.1567815 -164.87890625 28.609375 C-156.35786341 25.48867887 -147.76821897 22.87269695 -139.00390625 20.52734375 C-135.82774313 19.67526732 -132.67462743 18.76956904 -129.52734375 17.81640625 C-105.6045883 10.61390687 -81.08556084 6.27250212 -56.3125 3.25 C-55.13042969 3.09901855 -53.94835937 2.94803711 -52.73046875 2.79248047 C-35.12469071 0.60121352 -17.72936091 -0.01745205 0 0 Z " fill="#57A842" transform="translate(625.3125,51.75)"/>
<path d="M0 0 C0.86756983 -0.00226556 1.73513965 -0.00453111 2.62899947 -0.00686532 C5.54147779 -0.01320475 8.45390958 -0.01237599 11.36639404 -0.0115509 C13.4525 -0.01454247 15.53860541 -0.01794499 17.62471008 -0.02172852 C23.29632005 -0.03057393 28.96791494 -0.03290688 34.63953114 -0.0335443 C39.37352971 -0.03449331 44.10752476 -0.0381716 48.84152198 -0.0417164 C60.01176109 -0.04986335 71.18199214 -0.05230045 82.35223389 -0.05158997 C93.87424495 -0.05098939 105.39620916 -0.06153657 116.91820836 -0.07733363 C126.80962954 -0.09041179 136.70103541 -0.09577373 146.59246516 -0.09513456 C152.5003936 -0.09487961 158.40828043 -0.09772885 164.31620026 -0.10831261 C169.87459827 -0.11799795 175.43291495 -0.11806972 180.99131584 -0.11079597 C183.02945767 -0.10975062 185.06760456 -0.11211012 187.10573769 -0.11815643 C189.89228313 -0.12588632 192.67854838 -0.12122485 195.46508789 -0.11352539 C196.66919906 -0.12124074 196.66919906 -0.12124074 197.8976357 -0.12911195 C203.07624673 -0.09758614 207.50384645 0.70613232 212.48651123 2.13371277 C213.31537842 2.37090027 214.14424561 2.60808777 214.99822998 2.85246277 C233.48753347 9.49135091 243.27775565 24.73817696 251.36151123 41.57121277 C252.4140579 43.72582292 253.47116067 45.87815922 254.52842712 48.03045654 C255.22304926 49.44532042 255.91627313 50.86087169 256.60804749 52.27713013 C260.3569892 59.94674476 264.3391087 67.4845237 268.36737061 75.01017761 C269.55478129 77.26325312 270.70297125 79.53354923 271.84588623 81.80949402 C278.29168618 94.5587195 284.62461035 103.0026568 298.71383482 107.90940619 C306.40636607 110.2380501 313.55973808 110.5555151 321.56034851 110.51225281 C322.95547594 110.51554996 324.35060075 110.52016813 325.74571997 110.52598047 C329.55150673 110.53811704 333.35706885 110.5318619 337.16285503 110.52247548 C341.27814686 110.51564825 345.39339875 110.52622745 349.50868225 110.53475952 C356.63213248 110.54729885 363.75552201 110.54930819 370.87898064 110.54440308 C381.19123135 110.53758052 391.50339096 110.55013813 401.81562538 110.56791025 C418.56586133 110.59653176 435.31608742 110.61406532 452.06634521 110.6224823 C453.06780477 110.62298948 454.06926432 110.62349666 455.10107113 110.62401921 C462.2087177 110.62754605 469.31636443 110.6306755 476.42401123 110.63371277 C484.54144302 110.63718177 492.65887467 110.640831 500.77630615 110.64494324 C501.77623586 110.64544585 502.77616557 110.64594847 503.80639618 110.64646631 C520.49484438 110.65521823 537.18325872 110.67566945 553.87168413 110.70442533 C564.15470428 110.72157772 574.43762849 110.72820254 584.72066105 110.72111928 C591.76864196 110.71693197 598.81656245 110.72331546 605.8645293 110.73791802 C609.92680223 110.74595481 613.9889252 110.74912288 618.05119705 110.73909569 C621.77638781 110.72997755 625.50130089 110.73481236 629.22646815 110.75031012 C631.19841577 110.75496664 633.1703816 110.74496364 635.14230579 110.73428202 C652.09179866 110.84221483 664.91610454 116.1326218 677.23651123 127.82121277 C688.21939049 139.10917201 694.83040505 153.33454048 694.82640076 169.24093628 C694.8109169 170.16848221 694.79543304 171.09602814 694.77947998 172.05168152 C694.77523514 173.03493912 694.7709903 174.01819672 694.76661682 175.03125 C694.75001371 178.12819981 694.71239768 181.22446439 694.67401123 184.32121277 C694.6589406 186.43904182 694.6452564 188.55688121 694.63299561 190.67472839 C694.6001707 195.82798151 694.54851872 200.98073155 694.48651123 206.13371277 C693.94576462 205.72138901 693.40501801 205.30906525 692.84788513 204.88424683 C691.77701408 204.07320244 691.77701408 204.07320244 690.68450928 203.24577332 C689.97876266 202.70969955 689.27301605 202.17362579 688.54588318 201.62130737 C685.92218802 199.72607191 683.23541332 198.3023519 680.29901123 196.94621277 C679.31545654 196.47828308 678.33190186 196.01035339 677.31854248 195.52824402 C663.24810469 190.09905219 649.12315762 190.71125746 634.26496887 190.75276184 C631.57434617 190.74930312 628.88374896 190.74465968 626.19313329 190.73858011 C620.35422467 190.72777915 614.51539936 190.72805265 608.67648697 190.73572159 C599.99360611 190.74709471 591.3107952 190.7412545 582.62791477 190.73209667 C567.11774996 190.71631646 551.60762227 190.71766188 536.09745395 190.7263334 C522.5234913 190.733885 508.94954225 190.73584788 495.37557793 190.73226547 C494.47460519 190.73203632 493.57363245 190.73180716 492.64535751 190.73157106 C488.98785231 190.73063702 485.33034712 190.72968182 481.67284194 190.72869177 C447.37309646 190.7195179 413.0733746 190.72783005 378.77363277 190.74398246 C348.31341098 190.75821771 317.85322683 190.75694605 287.39300537 190.74259949 C253.15683857 190.72652832 218.92069262 190.72016976 184.68452257 190.72943628 C181.03343515 190.7303984 177.38234773 190.73133693 173.7312603 190.73226547 C172.38281177 190.73262132 172.38281177 190.73262132 171.00712186 190.73298436 C157.44378395 190.73639389 143.88046114 190.7324113 130.31712532 190.72482681 C114.89111917 190.71624365 99.46515589 190.71840496 84.03915507 190.73466904 C75.41036591 190.74346703 66.78166961 190.7440687 58.15288289 190.73273052 C52.38375873 190.72598727 46.61470878 190.73021906 40.84559559 190.74324483 C37.56218975 190.75035743 34.27900357 190.75120719 30.99559749 190.74202688 C7.804659 190.68216728 -11.25102515 193.00790611 -30.51348877 207.13371277 C-31.56536377 207.87621277 -32.61723877 208.61871277 -33.70098877 209.38371277 C-39.81440324 215.36127358 -44.88094018 222.39580768 -48.51348877 230.13371277 C-48.84348877 230.13371277 -49.17348877 230.13371277 -49.51348877 230.13371277 C-49.63049859 205.86340778 -49.71856333 181.59314531 -49.77254963 157.32261467 C-49.79828717 146.05235721 -49.83335244 134.78227542 -49.89068604 123.51213074 C-49.94065741 113.68446833 -49.9728121 103.8569332 -49.98393124 94.02914727 C-49.99042677 88.82952682 -50.00559981 83.63027038 -50.04213905 78.43076706 C-50.07631583 73.52727431 -50.08649831 68.62429224 -50.07902718 63.72069168 C-50.08039209 61.93015509 -50.0901945 60.13959973 -50.10951614 58.34916687 C-50.26755834 42.9359021 -47.70345832 30.35752553 -37.51348877 18.13371277 C-36.89087158 17.36414246 -36.26825439 16.59457214 -35.62677002 15.80168152 C-26.503148 5.60060318 -13.52762947 -0.02580985 0 0 Z " fill="#03466B" transform="translate(284.51348876953125,432.8662872314453)"/>
<path d="M0 0 C2.93788585 1.93685053 5.05801812 4.53357598 7.29956055 7.20629883 C7.82066406 7.82327637 8.34176758 8.44025391 8.87866211 9.07592773 C25.41349711 28.9285112 40.20920928 50.78536314 52.92456055 73.26879883 C53.38862305 74.0809082 53.85268555 74.89301758 54.33081055 75.72973633 C68.78381507 101.16997387 80.24798508 127.68319079 89.92456055 155.26879883 C90.41554373 156.62340261 90.90754279 157.97763918 91.40112305 159.33129883 C99.62993342 182.69050247 107.44984817 209.36797687 107.92456055 234.26879883 C102.54574792 235.70230314 97.16312656 237.12036636 91.77661133 238.5246582 C89.92289408 239.00831941 88.06967379 239.49389074 86.21704102 239.98168945 C58.84977911 247.16096033 31.18718588 252.34673357 3.29956055 257.01879883 C2.16854919 257.20938873 1.03753784 257.39997864 -0.12774658 257.59634399 C-14.87378834 260.07123878 -29.62732187 262.20593856 -44.47648621 263.95991516 C-48.53239145 264.44195649 -52.58503784 264.94973802 -56.63793945 265.45629883 C-61.49982189 266.05852596 -66.1789373 266.29980089 -71.07543945 266.26879883 C-71.17248169 264.7934668 -71.17248169 264.7934668 -71.27148438 263.28833008 C-72.73555447 241.4396682 -74.88837553 219.95987117 -78.7043457 198.38476562 C-79.09078049 196.18132465 -79.46705288 193.97633408 -79.84106445 191.77075195 C-87.09590606 149.09506453 -97.60517512 106.75905828 -113.07543945 66.26879883 C-114.13976964 63.47782341 -115.20207686 60.68609396 -116.26293945 57.89379883 C-116.67189453 56.82838867 -116.67189453 56.82838867 -117.08911133 55.74145508 C-119.07543945 50.49436274 -119.07543945 50.49436274 -119.07543945 48.26879883 C-118.34655518 48.02758301 -117.6176709 47.78636719 -116.86669922 47.5378418 C-95.90239331 40.6025415 -95.90239331 40.6025415 -75.07543945 33.26879883 C-74.07254883 32.90915039 -73.0696582 32.54950195 -72.03637695 32.17895508 C-60.15620932 27.77482961 -48.62784227 22.45721975 -37.07543945 17.26879883 C-36.24866699 16.89819336 -35.42189453 16.52758789 -34.57006836 16.14575195 C-27.96069316 13.16502529 -21.46341626 10.10551072 -15.17700195 6.48364258 C-14.35707764 6.0125708 -13.53715332 5.54149902 -12.69238281 5.05615234 C-11.10571647 4.13374607 -9.52783963 3.19600448 -7.96044922 2.24121094 C-7.24945068 1.82492432 -6.53845215 1.4086377 -5.8059082 0.97973633 C-5.18095459 0.60123535 -4.55600098 0.22273437 -3.91210938 -0.16723633 C-2.07543945 -0.73120117 -2.07543945 -0.73120117 0 0 Z " fill="#FCFCFC" transform="translate(988.075439453125,236.731201171875)"/>
<path d="M0 0 C0 73.92 0 147.84 0 224 C-41.98743207 224 -41.98743207 224 -62.5 222.25 C-64.747714 222.06761772 -66.99543547 221.88532743 -69.24316406 221.703125 C-84.94196664 220.39951871 -100.46452132 218.63257045 -116 216 C-118.14559031 215.65343995 -120.29142814 215.30840917 -122.4375 214.96484375 C-132.37613888 213.35756999 -142.28846347 211.62895115 -152.171875 209.7109375 C-154.28231631 209.3189984 -156.39554934 208.93911379 -158.51708984 208.61254883 C-166.7588806 207.33394081 -174.80252118 205.47775682 -182.89453125 203.48608398 C-185.15499939 202.93012165 -187.417186 202.38160705 -189.6796875 201.83398438 C-191.12250029 201.48219896 -192.5652126 201.13000115 -194.0078125 200.77734375 C-195.01861374 200.53201149 -195.01861374 200.53201149 -196.04983521 200.28172302 C-200.76817459 199.1159127 -200.76817459 199.1159127 -203 198 C-200.52342064 189.58515414 -196.74113984 181.93077546 -192.8125 174.125 C-192.28819397 173.07853302 -192.28819397 173.07853302 -191.7532959 172.01092529 C-173.72507219 136.1350662 -151.55156195 101.89974698 -124.20703125 72.390625 C-122.19614789 70.21246462 -120.24612946 67.99661162 -118.3125 65.75 C-112.67821261 59.28636657 -106.50673804 53.569419 -100 48 C-98.61361328 46.77990234 -98.61361328 46.77990234 -97.19921875 45.53515625 C-70.99655471 22.65795787 -35.90987629 0 0 0 Z " fill="#FCFCFC" transform="translate(617,74)"/>
<path d="M0 0 C7.41352592 0 13.18310606 0.02986492 20.125 1.8125 C20.96337402 2.02696777 21.80174805 2.24143555 22.66552734 2.46240234 C52.50237405 10.67093501 78.55892878 28.13519626 101 49 C102.28819861 50.10821078 103.57978858 51.21249356 104.875 52.3125 C113.19685199 59.57091046 120.86665261 67.58176395 128 76 C128.8881022 77.01409119 129.7775464 78.0270079 130.66796875 79.0390625 C157.39955956 109.56740351 177.93700367 144.87758273 196.125 181 C196.58656494 181.91378418 197.04812988 182.82756836 197.52368164 183.76904297 C199.68399901 188.11082937 201.63230423 192.32832006 203 197 C192.08085565 200.00575715 181.11667488 202.721504 170.0625 205.1875 C168.95092529 205.43709473 167.83935059 205.68668945 166.6940918 205.94384766 C160.62704915 207.28165514 154.56302348 208.4598047 148.42895508 209.44360352 C145.05721772 209.99071561 141.69273529 210.5710545 138.32772827 211.15774536 C114.05020052 215.37591132 89.85734043 218.5503999 65.30517578 220.62548828 C61.66597246 220.93586661 58.03431701 221.29677337 54.40234375 221.68359375 C36.08443855 223.51918204 18.7275679 223 0 223 C0 149.41 0 75.82 0 0 Z " fill="#FCFCFC" transform="translate(638,75)"/>
<path d="M0 0 C0.73524399 -0.00992981 1.47048798 -0.01985962 2.22801208 -0.03009033 C36.54527502 -0.39745052 66.74219428 5.092952 92.265625 29.9765625 C107.14211731 45.15113495 115.375 64.03257566 115.375 85.23828125 C98.875 85.23828125 82.375 85.23828125 65.375 85.23828125 C62.9 78.80328125 62.9 78.80328125 60.375 72.23828125 C52.48154587 59.85991001 41.58695157 52.57955872 27.50585938 48.86450195 C21.87710993 47.73866428 16.28644793 47.70760962 10.5625 47.73828125 C9.32508057 47.74400146 8.08766113 47.74972168 6.81274414 47.75561523 C-2.27776162 47.93360193 -9.53412386 48.83523539 -17.625 53.23828125 C-18.59953125 53.74617187 -19.5740625 54.2540625 -20.578125 54.77734375 C-36.70514058 64.0746123 -44.76576574 79.93180714 -49.625 97.23828125 C-55.94450621 123.50937137 -53.38482058 155.73279708 -39.3125 179.17578125 C-30.06101459 192.68781915 -17.7614367 200.53213945 -1.76171875 203.828125 C15.64972004 206.10483866 33.75151998 203.84460263 48.12890625 193.19921875 C57.56662816 185.23833857 61.10868874 176.97063723 65.375 165.23828125 C82.205 165.23828125 99.035 165.23828125 116.375 165.23828125 C114.21176851 189.03382768 105.21749198 210.84793324 86.76855469 226.61083984 C58.92603205 248.97870915 23.91931639 254.29563116 -10.81396484 250.92919922 C-16.54971927 250.15232745 -22.08416468 248.90129645 -27.625 247.23828125 C-28.67977539 246.92479736 -28.67977539 246.92479736 -29.75585938 246.60498047 C-45.85627076 241.61564686 -58.72877306 233.01132241 -70.625 221.23828125 C-71.35203125 220.57183594 -72.0790625 219.90539062 -72.828125 219.21875 C-95.04989681 198.44051848 -104.30789589 165.20318002 -105.75097656 135.65917969 C-106.5768691 107.61019629 -102.85141103 79.81531826 -88.625 55.23828125 C-88.27566406 54.62903809 -87.92632813 54.01979492 -87.56640625 53.39208984 C-73.54423868 29.33482708 -51.02489229 11.37540604 -24.04736328 4.02416992 C-20.25243286 3.03961207 -16.45213194 2.0898564 -12.625 1.23828125 C-11.87234863 1.05869873 -11.11969727 0.87911621 -10.34423828 0.6940918 C-6.89409437 0.11576367 -3.48859421 0.03811539 0 0 Z " fill="#FBFBFC" transform="translate(743.625,785.76171875)"/>
<path d="M0 0 C52.14 0 104.28 0 158 0 C158 15.51 158 31.02 158 47 C123.02 47 88.04 47 52 47 C52 64.16 52 81.32 52 99 C82.03 99 112.06 99 143 99 C143 114.51 143 130.02 143 146 C112.97 146 82.94 146 52 146 C52 177.68 52 209.36 52 242 C34.84 242 17.68 242 0 242 C0 162.14 0 82.28 0 0 Z " fill="#FAFBFB" transform="translate(459,790)"/>
<path d="M0 0 C20.86992929 4.44452198 41.74828595 9.23360082 62 16 C63.60294922 16.50466797 63.60294922 16.50466797 65.23828125 17.01953125 C71.08142776 18.88310148 76.56239266 21.10965963 82.10546875 23.7265625 C85.25208476 25.11090369 88.43070419 26.21337752 91.6875 27.3125 C99.13893893 29.91278403 105.9923907 33.33482718 112.98095703 36.96044922 C115.59017239 38.30386385 118.21960279 39.60418474 120.85083008 40.90380859 C124.24352182 42.58347602 127.6221018 44.29082396 131 46 C131.73057617 46.36818848 132.46115234 46.73637695 133.21386719 47.11572266 C152.02340746 56.64142854 169.85905167 67.7322608 187 80 C187.76586426 80.5480127 188.53172852 81.09602539 189.32080078 81.66064453 C198.5228693 88.27734361 207.51128485 95.03963466 216.0703125 102.47265625 C218.95745387 104.96329688 221.90286667 107.36182241 224.875 109.75 C228.58449548 112.76698474 232.01310149 115.89094359 235.33203125 119.328125 C237.10800591 121.10825885 238.96548949 122.73934856 240.875 124.375 C245.45971224 128.33942764 249.99302757 132.44577902 254 137 C254 137.66 254 138.32 254 139 C225.1530118 154.91003806 194.82393519 167.18952385 163.625 177.625 C162.44275848 178.02150757 162.44275848 178.02150757 161.2366333 178.42602539 C158.98525663 179.17819322 156.73154871 179.92279427 154.4765625 180.6640625 C153.80898926 180.88643585 153.14141602 181.1088092 152.45361328 181.33792114 C148.65730152 182.57195271 144.95308568 183.4474673 141 184 C140.24662354 182.42424194 140.24662354 182.42424194 139.47802734 180.81665039 C126.1178654 152.92052966 112.45005888 125.61968507 95 100 C94.50290527 99.2687793 94.00581055 98.53755859 93.49365234 97.78417969 C83.88888641 83.73938522 73.78159549 69.79259311 62.16015625 57.3359375 C60.37070468 55.40087052 58.65303949 53.43322883 56.9375 51.43359375 C52.16442205 45.96593795 47.06334392 40.82134964 41.9375 35.6875 C41.42899506 35.17765564 40.92049011 34.66781128 40.39657593 34.14251709 C32.69745 26.44777571 24.83133143 19.37508248 16 13 C14.87362127 12.14544919 13.74995756 11.28730902 12.62890625 10.42578125 C6.62716659 5.72027906 6.62716659 5.72027906 0 2 C0 1.34 0 0.68 0 0 Z " fill="#FCFCFB" transform="translate(719,82)"/>
<path d="M0 0 C-1.97932846 2.05627537 -3.99258038 3.81994333 -6.30078125 5.49609375 C-7.25960205 6.19919678 -7.25960205 6.19919678 -8.23779297 6.91650391 C-8.92244629 7.41843262 -9.60709961 7.92036133 -10.3125 8.4375 C-23.2623082 18.10425823 -34.86257815 28.67425099 -46.3125 40.0625 C-47.15261627 40.89457977 -47.15261627 40.89457977 -48.00970459 41.74346924 C-55.14405976 48.82605987 -61.7850876 56.07934904 -68 64 C-68.94186878 65.16864589 -69.88444694 66.33672087 -70.828125 67.50390625 C-96.63045812 100.08975598 -120.07254809 136.80795383 -135.71704102 175.41137695 C-136.07983154 176.26691162 -136.44262207 177.12244629 -136.81640625 178.00390625 C-137.27188843 179.13034546 -137.27188843 179.13034546 -137.73657227 180.27954102 C-139 182 -139 182 -141.18408203 182.87915039 C-144.83234162 183.03572127 -147.83411895 182.09702922 -151.23828125 180.9296875 C-151.94290497 180.69764618 -152.64752869 180.46560486 -153.37350464 180.22653198 C-155.69158668 179.45699814 -158.00225394 178.66772714 -160.3125 177.875 C-161.1117691 177.60401489 -161.91103821 177.33302979 -162.73452759 177.05383301 C-193.40618525 166.63774828 -223.93128134 154.28970237 -252 138 C-250.54501277 132.70463831 -247.14092513 129.96939677 -243.1875 126.4375 C-241.8176656 125.19015109 -240.44787467 123.94275445 -239.078125 122.6953125 C-238.39041016 122.07430664 -237.70269531 121.45330078 -236.99414062 120.81347656 C-235.17954146 119.16327546 -233.38919404 117.49222749 -231.609375 115.8046875 C-225.20311691 109.74492526 -218.57386135 104.14549043 -211.58203125 98.7734375 C-209.1712096 96.9207799 -206.79817106 95.03204925 -204.44921875 93.1015625 C-172.52902167 66.90885951 -135.08309509 44.92565795 -97 29 C-96.1440625 28.63261719 -95.288125 28.26523438 -94.40625 27.88671875 C-84.50672538 23.67942079 -74.41600277 20.0165594 -64.16015625 16.7734375 C-61.82410071 15.97014382 -61.82410071 15.97014382 -58.95703125 14.62109375 C-54.00060345 12.47613761 -48.82316093 11.11808631 -43.625 9.6875 C-42.5431543 9.3877124 -41.46130859 9.0879248 -40.34667969 8.77905273 C-32.34383273 6.58675279 -24.31206341 4.52539064 -16.25 2.5625 C-15.1976416 2.30364014 -14.1452832 2.04478027 -13.06103516 1.77807617 C-12.0766748 1.5432251 -11.09231445 1.30837402 -10.078125 1.06640625 C-8.78503418 0.7561853 -8.78503418 0.7561853 -7.46582031 0.43969727 C-4.92558152 -0.01327007 -2.57468193 -0.07862284 0 0 Z " fill="#FCFCFB" transform="translate(534,83)"/>
<path d="M0 0 C17.49 0 34.98 0 53 0 C53 79.86 53 159.72 53 242 C35.51 242 18.02 242 0 242 C0 162.14 0 82.28 0 0 Z " fill="#F9FAFB" transform="translate(362,790)"/>
<path d="M0 0 C0.33 0 0.66 0 1 0 C1.64692942 64.30908697 1.64692942 64.30908697 -2 87 C-2.19867676 88.30018066 -2.39735352 89.60036133 -2.60205078 90.93994141 C-7.19002565 120.75007571 -14.44112674 149.60452256 -24.06152344 178.18017578 C-24.82555118 180.47583666 -25.55776682 182.7741695 -26.2578125 185.08984375 C-31.91709081 203.38817696 -40.40664845 220.91201022 -48.625 238.1875 C-49.38792358 239.79987549 -49.38792358 239.79987549 -50.16625977 241.44482422 C-50.87673462 242.91653076 -50.87673462 242.91653076 -51.6015625 244.41796875 C-52.01744629 245.28188232 -52.43333008 246.1457959 -52.86181641 247.03588867 C-54 249 -54 249 -56 250 C-56 248.68 -56 247.36 -56 246 C-55.34 246 -54.68 246 -54 246 C-53.82984375 245.34773437 -53.6596875 244.69546875 -53.484375 244.0234375 C-51.98771087 238.62589346 -50.25193126 234.61564438 -47 230 C-46.29618843 228.01276732 -45.6288189 226.01222047 -45 224 C-44.01712992 221.99152635 -43.01622658 219.99180409 -42 218 C-39.69642518 212.75985671 -37.57406409 207.45960154 -35.5 202.125 C-35.20480469 201.37347656 -34.90960937 200.62195313 -34.60546875 199.84765625 C-32.56806996 194.61504173 -30.7441739 189.33654797 -29 184 C-28.48964373 182.47610552 -27.97791969 180.95266845 -27.46484375 179.4296875 C-27.21283203 178.67816406 -26.96082031 177.92664063 -26.70117188 177.15234375 C-26.18930731 175.62591386 -25.67627383 174.09987548 -25.16210938 172.57421875 C-23.65679755 168.07763176 -22.29200375 163.56360124 -21 159 C-20.51064254 157.55884229 -20.0120717 156.12074416 -19.5 154.6875 C-18.11282166 150.5960245 -17.20909449 146.50743578 -16.4296875 142.26171875 C-15.81555203 139.02913295 -14.97449746 135.9115912 -14.0625 132.75 C-11.98485576 125.41713797 -10.52475178 118.3085623 -9.46484375 110.7578125 C-9 108 -9 108 -8 106 C-7.66522269 103.86046867 -7.38436231 101.71247705 -7.125 99.5625 C-7.00137085 98.54663818 -7.00137085 98.54663818 -6.87524414 97.51025391 C-5.86869095 89.12079247 -4.96093152 80.71923571 -4.05322266 72.31860352 C-3.87025635 70.64109009 -3.87025635 70.64109009 -3.68359375 68.9296875 C-3.57587646 67.93179199 -3.46815918 66.93389648 -3.35717773 65.90576172 C-3.10541905 63.85761964 -2.80177968 61.81552806 -2.46118164 59.78027344 C-2.03771634 57.22737623 -1.9271108 54.95345557 -2 52.375 C-2.06244583 50.15036739 -2.07985889 48.30141069 -1.50892639 46.14654541 C-0.96989747 43.87303382 -0.84163363 41.84121489 -0.79467773 39.50683594 C-0.77473251 38.62622498 -0.75478729 37.74561401 -0.73423767 36.83831787 C-0.71752518 35.89651672 -0.70081268 34.95471558 -0.68359375 33.984375 C-0.66281265 33.01340881 -0.64203156 32.04244263 -0.62062073 31.04205322 C-0.55531138 27.94477315 -0.49632677 24.84740932 -0.4375 21.75 C-0.39429708 19.64842889 -0.35068222 17.5468662 -0.30664062 15.4453125 C-0.19964902 10.29696052 -0.0983291 5.14852442 0 0 Z " fill="#299163" transform="translate(1121,520)"/>
<path d="M0 0 C0.33 0 0.66 0 1 0 C1 67.65 1 135.3 1 205 C6.61 205 12.22 205 18 205 C18 137.35 18 69.7 18 0 C18.33 0 18.66 0 19 0 C19 68.31 19 136.62 19 207 C12.4 207 5.8 207 -1 207 C-0.67 138.69 -0.34 70.38 0 0 Z " fill="#48A42F" transform="translate(618,320)"/>
<path d="M0 0 C0.33 0 0.66 0 1 0 C1.3268658 13.27410409 1.2293029 25.87822439 -1.56787109 38.87890625 C-2.37805933 42.85569459 -2.98494829 46.86796368 -3.625 50.875 C-4.85508671 58.56526013 -4.85508671 58.56526013 -6 62 C-6.28457833 63.32941701 -6.54810871 64.66341863 -6.796875 66 C-10.28746383 84.34186343 -15.10666914 101.90753934 -21.17431641 119.56103516 C-21.94905299 121.84950898 -22.69120861 124.14512379 -23.41796875 126.44921875 C-23.63453125 127.12823242 -23.85109375 127.80724609 -24.07421875 128.50683594 C-24.64170857 130.29334451 -25.20203025 132.08212579 -25.76171875 133.87109375 C-27.42952178 138.08532161 -29.14637026 141.87689837 -33.12109375 144.28515625 C-34.26771484 144.66994141 -34.26771484 144.66994141 -35.4375 145.0625 C-36.29988281 145.36800781 -37.16226562 145.67351562 -38.05078125 145.98828125 C-39.02402344 146.32214844 -39.99726562 146.65601563 -41 147 C-43.37769332 147.90965775 -45.75267819 148.82642433 -48.125 149.75 C-50.08307614 150.50067122 -52.04131782 151.25091152 -54 152 C-54 151.01 -54 150.02 -54 149 C-50.15044145 146.9573771 -46.69900556 145.18690066 -42.46728516 144.05541992 C-35.28460052 142.07859039 -35.28460052 142.07859039 -29.75479126 137.35681152 C-27.16980359 132.50676001 -25.84185151 127.22125797 -24.4375 121.9375 C-23.95293533 120.2880198 -23.46314654 118.64006568 -22.96826172 116.99365234 C-22.00978568 113.77073179 -21.0851736 110.54144199 -20.19384766 107.29931641 C-19.24393836 103.84635528 -18.22201727 100.42501006 -17.13671875 97.01171875 C-12.52548455 82.31082457 -9.7672761 67.13567486 -7 52 C-6.69400879 50.32719971 -6.69400879 50.32719971 -6.38183594 48.62060547 C-4.06708561 35.71322864 -2.46610611 22.87904826 -1.59472656 9.79174805 C-1.49562988 8.30348511 -1.49562988 8.30348511 -1.39453125 6.78515625 C-1.34143799 5.90738525 -1.28834473 5.02961426 -1.23364258 4.12524414 C-1 2 -1 2 0 0 Z " fill="#38996E" transform="translate(1102,569)"/>
<path d="M0 0 C0.66 0.66 1.32 1.32 2 2 C-9.78556321 20.98030708 -9.78556321 20.98030708 -16.25390625 29.640625 C-18.98317046 33.32848984 -21.52821752 37.13556131 -24 41 C-24.51554443 41.75007324 -25.03108887 42.50014648 -25.56225586 43.27294922 C-27.19530849 46.37045268 -27.36151649 48.22695534 -27.328125 51.703125 C-27.32296875 52.7653125 -27.3178125 53.8275 -27.3125 54.921875 C-27.291875 56.02015625 -27.27125 57.1184375 -27.25 58.25 C-27.24484375 59.36375 -27.2396875 60.4775 -27.234375 61.625 C-27.66023898 66.66774675 -27.66023898 66.66774675 -26 71 C-26 70.01 -26 69.02 -26 68 C-24.70896357 66.6256709 -23.3743291 65.29103643 -22 64 C-21.67 63.34 -21.34 62.68 -21 62 C-20.34 62 -19.68 62 -19 62 C-18.74476563 61.43796875 -18.48953125 60.8759375 -18.2265625 60.296875 C-16.84307219 57.70613518 -15.20061417 55.54892155 -13.375 53.25 C-12.74335937 52.45078125 -12.11171875 51.6515625 -11.4609375 50.828125 C-10.97882813 50.22484375 -10.49671875 49.6215625 -10 49 C-9.67 49.66 -9.34 50.32 -9 51 C-11.54246052 54.40837099 -14.09339512 57.81017971 -16.65185547 61.20654297 C-17.56204105 62.4173766 -18.46986461 63.62998887 -19.37548828 64.84423828 C-20.72354135 66.65071534 -22.07969519 68.45084611 -23.4375 70.25 C-23.86208496 70.82258545 -24.28666992 71.3951709 -24.72412109 71.98510742 C-25.76858696 73.36079167 -26.87888607 74.68602904 -28 76 C-28.66 76 -29.32 76 -30 76 C-32.09090861 43.66548747 -32.09090861 43.66548747 -25.375 35.8125 C-23.85703261 34.14397576 -22.30436001 32.52232314 -20.72070312 30.91601562 C-17.20286827 26.99888056 -14.48459563 22.46885964 -11.625 18.0625 C-10.47157962 16.32406914 -9.31794281 14.58578186 -8.1640625 12.84765625 C-5.37686682 8.6045508 -2.67121292 4.31696021 0 0 Z " fill="#2A9275" transform="translate(1036,781)"/>
<path d="M0 0 C0.66 0 1.32 0 2 0 C2 0.66 2 1.32 2 2 C1.34 2 0.68 2 0 2 C0 1.34 0 0.68 0 0 Z M-1 1 C-0.505 1.99 -0.505 1.99 0 3 C-3.08205942 4.14928044 -6.16585971 5.29381663 -9.25 6.4375 C-10.12269531 6.76298828 -10.99539063 7.08847656 -11.89453125 7.42382812 C-12.73886719 7.73642578 -13.58320312 8.04902344 -14.453125 8.37109375 C-15.22817383 8.65911865 -16.00322266 8.94714355 -16.80175781 9.24389648 C-18.85412955 9.94982666 -20.89200719 10.49066381 -23 11 C-25.04765151 11.75853501 -27.07108556 12.56594411 -29.09765625 13.37890625 C-31 14 -31 14 -34 14 C-35.23107198 19.69370789 -35.07070544 25.20215428 -35 31 C-31.04 29.68 -27.08 28.36 -23 27 C-23 27.66 -23 28.32 -23 29 C-22.34 29.33 -21.68 29.66 -21 30 C-23.45714547 30.83698386 -25.91558857 31.66972424 -28.375 32.5 C-29.07367187 32.73847656 -29.77234375 32.97695313 -30.4921875 33.22265625 C-35.7734375 35 -35.7734375 35 -38 35 C-38 27.74 -38 20.48 -38 13 C-18 5.5 -18 5.5 -16.01953125 4.76098633 C-14.61787704 4.23282431 -13.21963844 3.69554341 -11.82421875 3.15112305 C-8.05401972 1.69206636 -5.07430531 0.61803388 -1 1 Z " fill="#30976A" transform="translate(1044,720)"/>
<path d="M0 0 C0.99 0.66 1.98 1.32 3 2 C1.8553125 2.7115625 1.8553125 2.7115625 0.6875 3.4375 C-7.96364922 9.23194655 -15.61452565 16.38291843 -23.23046875 23.4453125 C-25.45918393 25.50113722 -27.70767919 27.51616957 -30 29.5 C-41.11083647 39.1401586 -41.11083647 39.1401586 -51.1328125 49.875 C-55.17640007 54.47690719 -59.63470007 58.70574474 -64 63 C-64.99 62.67 -65.98 62.34 -67 62 C-65.82244141 60.83984375 -65.82244141 60.83984375 -64.62109375 59.65625 C-57.72826227 52.86725228 -57.72826227 52.86725228 -51.25 45.6875 C-48.46601456 42.42050985 -45.43879456 39.68509095 -42.16796875 36.9140625 C-39.66897667 34.70774516 -37.34089953 32.37316307 -35 30 C-30.82218834 25.7841506 -26.52913393 21.83174134 -22 18 C-20.9763242 17.12397631 -19.95290733 16.24764999 -18.9296875 15.37109375 C-12.74024144 10.08503108 -6.49165068 4.91486731 0 0 Z " fill="#6BB539" transform="translate(320,157)"/>
<path d="M0 0 C0.33 0 0.66 0 1 0 C1.00423194 0.88275478 1.00846388 1.76550957 1.01282406 2.6750145 C1.11606484 24.14030564 1.22469274 45.6055636 1.33933926 67.07079697 C1.39465077 77.45115786 1.4481294 87.83152219 1.49731445 98.21191406 C1.54018163 107.25795658 1.58646606 116.303974 1.63687855 125.34997773 C1.66345903 130.14110413 1.68831164 134.93222561 1.70907402 139.72338104 C1.72866218 144.23112446 1.75281255 148.73882021 1.78049088 153.246521 C1.78984975 154.90254093 1.79752921 156.55857133 1.80341911 158.21460724 C1.81170006 160.47285609 1.82598231 162.73098984 1.84178162 164.98919678 C1.84823417 166.25389675 1.85468672 167.51859673 1.8613348 168.82162094 C1.85567337 171.87720962 1.85567337 171.87720962 2.69738865 174.1881752 C2.79725039 174.78607738 2.89711214 175.38397957 3 176 C1.515 177.98 1.515 177.98 0 180 C0 120.6 0 61.2 0 0 Z " fill="#0C345F" transform="translate(235,483)"/>
<path d="M0 0 C8.45179341 8.26856172 15.33160187 17.58121903 21.8125 27.4375 C22.49610596 28.47011963 23.17971191 29.50273926 23.8840332 30.56665039 C30.21778272 40.2021375 36.23444954 50.01500523 42 60 C42.48678223 60.82258301 42.97356445 61.64516602 43.47509766 62.49267578 C44.17771729 63.70479736 44.17771729 63.70479736 44.89453125 64.94140625 C45.53612183 66.03690796 45.53612183 66.03690796 46.19067383 67.15454102 C46.45775146 67.76354248 46.7248291 68.37254395 47 69 C46.67 69.66 46.34 70.32 46 71 C40.44419134 63.88610478 40.44419134 63.88610478 40 59 C39.34 59 38.68 59 38 59 C37.59007812 58.14535156 37.18015625 57.29070312 36.7578125 56.41015625 C36.21898437 55.30542969 35.68015625 54.20070313 35.125 53.0625 C34.59132813 51.96035156 34.05765625 50.85820312 33.5078125 49.72265625 C32.28340155 46.90595489 32.28340155 46.90595489 30 46 C29.20834193 44.54405188 28.481563 43.05251456 27.7890625 41.546875 C25.12562471 36.06412889 21.91360254 31.20090945 18.375 26.25 C17.76833496 25.39035645 17.16166992 24.53071289 16.53662109 23.64501953 C12.2782329 17.65829887 7.85876399 11.8193717 3.20068359 6.13769531 C0 2.19970055 0 2.19970055 0 0 Z " fill="#469E47" transform="translate(1016,239)"/>
<path d="M0 0 C0.66 0 1.32 0 2 0 C1.59265625 1.22074219 1.1853125 2.44148438 0.765625 3.69921875 C0.49041016 4.52599121 0.21519531 5.35276367 -0.06835938 6.20458984 C-0.70312315 8.10921386 -1.33992496 10.01315957 -1.97851562 11.91650391 C-7.84357377 29.46473579 -12.7665746 46.99088012 -17 65 C-18.36361529 62.77030473 -19.03478786 61.45975558 -18.83496094 58.81884766 C-18.63676758 58.02526855 -18.43857422 57.23168945 -18.234375 56.4140625 C-18.00854736 55.4974585 -17.78271973 54.58085449 -17.55004883 53.63647461 C-17.28603271 52.64268799 -17.0220166 51.64890137 -16.75 50.625 C-16.48276123 49.58802979 -16.21552246 48.55105957 -15.94018555 47.48266602 C-13.55826667 38.52688851 -10.74739363 29.72409092 -7.8125 20.9375 C-7.59694458 20.29202209 -7.38138916 19.64654419 -7.15930176 18.98150635 C-4.99964504 12.54786231 -2.81799649 6.17756233 0 0 Z " fill="#6BB33D" transform="translate(180,375)"/>
<path d="M0 0 C0.33 0 0.66 0 1 0 C1.05534912 0.55985596 1.11069824 1.11971191 1.16772461 1.6965332 C1.4207582 4.23555805 1.6790698 6.774019 1.9375 9.3125 C2.02451172 10.19357422 2.11152344 11.07464844 2.20117188 11.98242188 C2.28818359 12.82998047 2.37519531 13.67753906 2.46484375 14.55078125 C2.543396 15.33106689 2.62194824 16.11135254 2.70288086 16.9152832 C2.96337997 19.18882001 2.96337997 19.18882001 4 22 C4.09719228 24.66398546 4.13994335 27.3009403 4.1328125 29.96484375 C4.13376923 30.75339249 4.13472595 31.54194122 4.13571167 32.35438538 C4.13639248 34.02800577 4.1345451 35.70162881 4.13037109 37.37524414 C4.1250855 39.89671028 4.13028582 42.41799301 4.13671875 44.93945312 C4.13996205 53.67527844 3.95349404 62.30452526 3 71 C2.67 71 2.34 71 2 71 C1.97494385 69.92218262 1.9498877 68.84436523 1.92407227 67.73388672 C1.82863597 63.66707002 1.72877009 59.6003713 1.62768555 55.53369141 C1.58484376 53.78632399 1.54314283 52.03892816 1.50268555 50.29150391 C1.28350021 40.85841628 0.94543839 31.48169029 0.20727539 22.07373047 C-0.0953164 17.58653303 -0.11024292 13.12017922 -0.0625 8.625 C-0.05798828 7.78195312 -0.05347656 6.93890625 -0.04882812 6.0703125 C-0.03733113 4.0468422 -0.01941438 2.02340982 0 0 Z " fill="#2A9550" transform="translate(1101,491)"/>
<path d="M0 0 C0.93423645 3.01031744 1.04449911 3.86650268 0 7 C-0.65925695 13.3321223 -1.07516592 19.69487263 -1 26.0625 C-1 29.26974721 -1.20386526 31.9149779 -2 35 C-2.33 35 -2.66 35 -3 35 C-3.33 46.88 -3.66 58.76 -4 71 C-4.33 71 -4.66 71 -5 71 C-5.66489756 18.62653067 -5.66489756 18.62653067 -2 2 C-1.34 1.34 -0.68 0.68 0 0 Z " fill="#86BF5E" transform="translate(135,489)"/>
<path d="M0 0 C0.33 0 0.66 0 1 0 C4.07979709 24.37080571 4.34731875 48.46148508 4 73 C3.67 73 3.34 73 3 73 C3 59.8 3 46.6 3 33 C2.34 33 1.68 33 1 33 C-0.02635644 29.92093067 -0.07115249 27.90270329 0 24.6875 C0.04247545 20.64171299 -0.29126153 16.9866539 -1 13 C-1.22982251 8.56265771 -1.0821387 4.32855479 0 0 Z " fill="#67B37F" transform="translate(1119,487)"/>
<path d="M0 0 C0.33 0 0.66 0 1 0 C1.01981934 0.98991943 1.03963867 1.97983887 1.06005859 2.99975586 C1.43300518 21.06997488 1.91746213 39.04665961 3.59765625 57.05078125 C3.99187105 61.38881097 4.07657148 65.64563531 4 70 C3.67 70 3.34 70 3 70 C3 68.02 3 66.04 3 64 C2.34 64 1.68 64 1 64 C-2.01300747 42.73464152 -0.75356007 21.38859627 0 0 Z " fill="#76B645" transform="translate(150,528)"/>
<path d="M0 0 C0.33 0 0.66 0 1 0 C1.02331376 7.37227583 1.0410111 14.74454353 1.05181217 22.11684895 C1.05699977 25.5412102 1.06402119 28.96554598 1.07543945 32.38989258 C1.08852415 36.33935222 1.09326226 40.28880204 1.09765625 44.23828125 C1.10281754 45.45018631 1.10797882 46.66209137 1.11329651 47.91072083 C1.11436703 64.35703263 1.11436703 64.35703263 0 69 C-1.485 69.99 -1.485 69.99 -3 71 C-3.12524462 63.73581213 -3.12524462 63.73581213 -2.5 60.0625 C-1.9503753 56.69604869 -1.96704556 53.54900208 -2.0625 50.1484375 C-2 48 -2 48 -1.50892639 46.14654541 C-0.96989747 43.87303382 -0.84163363 41.84121489 -0.79467773 39.50683594 C-0.77473251 38.62622498 -0.75478729 37.74561401 -0.73423767 36.83831787 C-0.71752518 35.89651672 -0.70081268 34.95471558 -0.68359375 33.984375 C-0.66281265 33.01340881 -0.64203156 32.04244263 -0.62062073 31.04205322 C-0.55531138 27.94477315 -0.49632677 24.84740932 -0.4375 21.75 C-0.39429708 19.64842889 -0.35068222 17.5468662 -0.30664062 15.4453125 C-0.19964902 10.29696052 -0.0983291 5.14852442 0 0 Z " fill="#228D4C" transform="translate(1121,520)"/>
<path d="M0 0 C0 0.33 0 0.66 0 1 C-9.02253886 1.83930594 -17.9401941 2.12224626 -27 2 C-27 2.66 -27 3.32 -27 4 C-26.34 4.33 -25.68 4.66 -25 5 C-37.37405198 5.13305432 -49.64938342 4.76677886 -62 4 C-62 3.67 -62 3.34 -62 3 C-55.74231981 2.56578105 -49.48419557 2.13887233 -43.22558594 1.71826172 C-41.10370971 1.57468335 -38.98195951 1.42922798 -36.86035156 1.28173828 C-24.55243773 0.4275063 -12.34091302 -0.24500342 0 0 Z " fill="#6BB46F" transform="translate(870,508)"/>
<path d="M0 0 C0.33 0 0.66 0 1 0 C1.51316018 15.24480483 0.67312078 29.17633401 -3 44 C-3.33 44 -3.66 44 -4 44 C-4.26560907 36.34160519 -3.75362426 28.96550473 -2.78393555 21.38476562 C-2.06510011 15.74594337 -1.59412674 10.11647484 -1.24609375 4.44140625 C-1 2 -1 2 0 0 Z " fill="#349860" transform="translate(1102,569)"/>
<path d="M0 0 C3.0526475 3.42684646 3.83151337 6.62202416 4.7890625 11.06640625 C5.0121962 12.07936012 5.0121962 12.07936012 5.23983765 13.11277771 C5.71105274 15.26074687 6.16843076 17.411375 6.625 19.5625 C7.09163341 21.71647022 7.56106871 23.86980902 8.03158569 26.02293396 C8.45629461 27.97332976 8.87407393 29.92523066 9.29150391 31.87719727 C9.94784285 35.0076771 9.94784285 35.0076771 11 38 C10.0625 40.1875 10.0625 40.1875 9 42 C6.77596226 35.64134586 5.3363148 29.13810207 3.85839844 22.57739258 C3.37529654 20.43881269 2.88320938 18.30242864 2.390625 16.16601562 C2.08017974 14.79699947 1.7702657 13.42786273 1.4609375 12.05859375 C1.04013916 10.20705688 1.04013916 10.20705688 0.61083984 8.31811523 C0.0807137 5.43844119 -0.129231 2.91391715 0 0 Z " fill="#3C9C4E" transform="translate(1086,416)"/>
<path d="M0 0 C0 0.33 0 0.66 0 1 C-1.23975586 1.02505615 -2.47951172 1.0501123 -3.75683594 1.07592773 C-8.40877535 1.1709461 -13.06059777 1.27092607 -17.71240234 1.37231445 C-19.715955 1.41530984 -21.71953603 1.45700536 -23.72314453 1.49731445 C-39.38648276 1.79250839 -39.38648276 1.79250839 -55 3 C-55 3.33 -55 3.66 -55 4 C-60.28 3.67 -65.56 3.34 -71 3 C-71 2.67 -71 2.34 -71 2 C-47.42486278 -0.86690051 -23.70192131 -0.19123943 0 0 Z " fill="#9DCE86" transform="translate(648,52)"/>
<path d="M0 0 C4.37436241 3.77012805 6.28624737 9.32140983 8.72558594 14.43237305 C9.61929189 16.30056782 10.52762746 18.16111999 11.4375 20.02148438 C12.29214844 21.79942383 12.29214844 21.79942383 13.1640625 23.61328125 C13.68436035 24.69391846 14.2046582 25.77455566 14.74072266 26.88793945 C15.9843025 29.96120667 16.5929418 32.71982526 17 36 C16.34 36 15.68 36 15 36 C10.12804054 25.35101351 10.12804054 25.35101351 8.4375 21.3125 C7.33467701 18.77121224 6.1621047 16.38253761 4.875 13.9375 C3.19681582 10.65158975 2.37028043 7.70280428 2 4 C1.34 4 0.68 4 0 4 C0 2.68 0 1.36 0 0 Z " fill="#409C49" transform="translate(1066,316)"/>
<path d="M0 0 C0.66 0 1.32 0 2 0 C3.43683238 4.56767486 4.86050039 9.13917507 6.27246094 13.71459961 C6.75394501 15.26843596 7.23892115 16.82119491 7.72753906 18.37280273 C8.43188968 20.61163147 9.12332053 22.85411754 9.8125 25.09765625 C10.03123779 25.78336197 10.24997559 26.46906769 10.4753418 27.17555237 C11.80679165 31.56582072 12.20812576 35.4238349 12 40 C11.34 39.67 10.68 39.34 10 39 C9.30808145 36.45591519 8.72285002 33.95261121 8.1875 31.375 C6.60686724 24.16474771 4.54784295 17.30948287 2.05078125 10.3671875 C0.9709133 6.90679281 0.41628896 3.59563871 0 0 Z " fill="#3F9A4F" transform="translate(1095,384)"/>
<path d="M0 0 C-3.16993049 2.11328699 -5.13847341 2.58628867 -8.83984375 3.2890625 C-10.5578418 3.61777344 -10.5578418 3.61777344 -12.31054688 3.953125 C-13.50744141 4.17484375 -14.70433594 4.3965625 -15.9375 4.625 C-17.13052734 4.85445313 -18.32355469 5.08390625 -19.55273438 5.3203125 C-28.4460798 7 -28.4460798 7 -33 7 C-33 6.34 -33 5.68 -33 5 C-31.02 5 -29.04 5 -27 5 C-27 4.34 -27 3.68 -27 3 C-26.35933594 2.95101563 -25.71867188 2.90203125 -25.05859375 2.8515625 C-19.79914855 2.39694578 -15.05929083 1.5872285 -10 0 C-6.2691844 -0.97711837 -3.74439093 -0.96284338 0 0 Z " fill="#35994A" transform="translate(1026,507)"/>
<path d="M0 0 C14.70411337 0.61809326 29.34134864 1.69620747 44 3 C44 3.33 44 3.66 44 4 C39.05 4.33 34.1 4.66 29 5 C29 4.67 29 4.34 29 4 C27.02 4 25.04 4 23 4 C23 4.33 23 4.66 23 5 C20.69 4.67 18.38 4.34 16 4 C16 3.67 16 3.34 16 3 C12.37 3 8.74 3 5 3 C5 2.34 5 1.68 5 1 C3.35 1 1.7 1 0 1 C0 0.67 0 0.34 0 0 Z " fill="#76B95A" transform="translate(537,294)"/>
<path d="M0 0 C0.33 0 0.66 0 1 0 C1.33 12.21 1.66 24.42 2 37 C2.33 37 2.66 37 3 37 C3.18451025 46.41002278 3.18451025 46.41002278 2 51 C1.67 51 1.34 51 1 51 C-0.15683242 45.5000424 -0.12791911 40.16023272 -0.09765625 34.5703125 C-0.0962413 33.57998016 -0.09482635 32.58964783 -0.09336853 31.56930542 C-0.08779252 28.42117227 -0.07524442 25.27311148 -0.0625 22.125 C-0.0574819 19.98437603 -0.05291954 17.84375094 -0.04882812 15.703125 C-0.03783094 10.46872551 -0.02111675 5.23436793 0 0 Z " fill="#50A571" transform="translate(1102,524)"/>
<path d="M0 0 C0.495 0.99 0.495 0.99 1 2 C-3.18451089 3.0127944 -7.37303075 4.00793368 -11.5625 5 C-12.74392578 5.28617187 -13.92535156 5.57234375 -15.14257812 5.8671875 C-20.86846929 7.21445601 -26.10929665 8.41520376 -32 8 C-28.91190305 6.23537317 -27.76687864 6 -24 6 C-24 5.34 -24 4.68 -24 4 C-23.278125 4.04125 -22.55625 4.0825 -21.8125 4.125 C-18.75333202 3.98903698 -16.79988743 3.18995216 -14 2 C-12.33985384 1.63557767 -10.67293936 1.30027117 -9 1 C-8.01 0.7215625 -8.01 0.7215625 -7 0.4375 C-4.62784655 -0.08140857 -2.42075428 -0.06724317 0 0 Z " fill="#389B4E" transform="translate(1060,499)"/>
<path d="M0 0 C0.66 0.33 1.32 0.66 2 1 C1.125 8.75 1.125 8.75 0 11 C-0.66 11 -1.32 11 -2 11 C-1.34 11.66 -0.68 12.32 0 13 C-0.20703125 16.1875 -0.20703125 16.1875 -0.8125 20 C-1.00457031 21.258125 -1.19664062 22.51625 -1.39453125 23.8125 C-2 27 -2 27 -3 29 C-3.66 29 -4.32 29 -5 29 C-4.28119007 19.05015726 -2.49984488 9.64225881 0 0 Z " fill="#76B947" transform="translate(141,443)"/>
<path d="M0 0 C0 3.96009225 -1.40780183 5.14520759 -3.875 8.1875 C-4.95394531 9.53908203 -4.95394531 9.53908203 -6.0546875 10.91796875 C-7.01761719 11.94857422 -7.01761719 11.94857422 -8 13 C-8.66 13 -9.32 13 -10 13 C-8.48446596 9.52224821 -6.4226544 7.0442016 -3.875 4.25 C-3.15054688 3.45078125 -2.42609375 2.6515625 -1.6796875 1.828125 C-0.84824219 0.92320312 -0.84824219 0.92320312 0 0 Z M-11 13 C-11 16.99947122 -12.92167271 19.01523779 -15.25 22.0625 C-15.64574219 22.60455078 -16.04148438 23.14660156 -16.44921875 23.70507812 C-18.67067302 26.65123632 -20.50047552 28.7077444 -24 30 C-20.12281347 23.86467186 -15.91706956 18.33894831 -11 13 Z " fill="#6FB63E" transform="translate(251,222)"/>
<path d="M0 0 C0 0.33 0 0.66 0 1 C-0.98742187 1.04898438 -1.97484375 1.09796875 -2.9921875 1.1484375 C-4.27351562 1.22320313 -5.55484375 1.29796875 -6.875 1.375 C-8.78925781 1.47941406 -8.78925781 1.47941406 -10.7421875 1.5859375 C-14.08061699 1.67241106 -14.08061699 1.67241106 -16 4 C-18.58064129 4.14497985 -21.04943884 4.18677545 -23.625 4.125 C-24.33140625 4.11597656 -25.0378125 4.10695313 -25.765625 4.09765625 C-27.51056098 4.07407603 -29.25532295 4.03820461 -31 4 C-31 3.67 -31 3.34 -31 3 C-33.97 2.505 -33.97 2.505 -37 2 C-37 1.67 -37 1.34 -37 1 C-24.65415863 0.32292352 -12.36592489 -0.1574163 0 0 Z " fill="#56AB57" transform="translate(805,512)"/>
<path d="M0 0 C0.66 0.66 1.32 1.32 2 2 C0.2365625 1.7834375 0.2365625 1.7834375 -1.5625 1.5625 C-2.22378906 1.48128906 -2.88507812 1.40007813 -3.56640625 1.31640625 C-5.38264776 1.0802657 -7.1933917 0.80110138 -9 0.5 C-14.44472287 -0.28367131 -19.94703415 -0.36373536 -25.4375 -0.5625 C-26.55060547 -0.60568359 -27.66371094 -0.64886719 -28.81054688 -0.69335938 C-31.54025844 -0.79879888 -34.27005143 -0.90092029 -37 -1 C-37 -1.33 -37 -1.66 -37 -2 C-10.46993834 -3.78699897 -10.46993834 -3.78699897 0 0 Z " fill="#3F6384" transform="translate(785,787)"/>
<path d="M0 0 C0.66 0.66 1.32 1.32 2 2 C-13.77021363 10.32957004 -13.77021363 10.32957004 -20.0625 9.6875 C-20.701875 9.460625 -21.34125 9.23375 -22 9 C-19.09907498 7.06604999 -18.10325263 6.69868059 -14.8125 6.375 C-13.554375 6.25125 -12.29625 6.1275 -11 6 C-11 5.34 -11 4.68 -11 4 C-10.484375 3.896875 -9.96875 3.79375 -9.4375 3.6875 C-6.13973565 2.75736134 -3.13366668 1.38604488 0 0 Z " fill="#31916A" transform="translate(1058,733)"/>
<path d="M0 0 C0.33 0.66 0.66 1.32 1 2 C-3.42968051 3.47656017 -7.85787814 3.45446175 -12.5 3.6875 C-13.46292969 3.74744141 -14.42585937 3.80738281 -15.41796875 3.86914062 C-16.34222656 3.91619141 -17.26648438 3.96324219 -18.21875 4.01171875 C-19.06373047 4.05772217 -19.90871094 4.10372559 -20.77929688 4.15112305 C-23 4 -23 4 -26 2 C-22.97961911 1.66205529 -19.95880244 1.32951567 -16.9375 1 C-16.08994141 0.90460938 -15.24238281 0.80921875 -14.36914062 0.7109375 C-9.54527411 0.18943842 -4.85163736 -0.10532727 0 0 Z " fill="#4EA65C" transform="translate(959,499)"/>
<path d="M0 0 C0.33 0 0.66 0 1 0 C2.57913553 9.83758754 1.61701676 19.0737676 -3 28 C-4.15652656 24.52681742 -3.85092924 21.93862721 -3.22265625 18.359375 C-2.94711914 16.75449219 -2.94711914 16.75449219 -2.66601562 15.1171875 C-2.46685547 14.00601563 -2.26769531 12.89484375 -2.0625 11.75 C-1.86720703 10.62335937 -1.67191406 9.49671875 -1.47070312 8.3359375 C-0.98773667 5.55593546 -0.49724577 2.77747735 0 0 Z " fill="#4CA277" transform="translate(1097,607)"/>
<path d="M0 0 C-0.51385254 0.31227539 -1.02770508 0.62455078 -1.55712891 0.94628906 C-3.9138874 2.3795462 -6.26944988 3.81475784 -8.625 5.25 C-9.43324219 5.74113281 -10.24148438 6.23226562 -11.07421875 6.73828125 C-15.44735283 9.40482642 -19.76360418 12.12089604 -24 15 C-24.33 14.34 -24.66 13.68 -25 13 C-23.3790787 11.82767315 -21.75313167 10.6622923 -20.125 9.5 C-19.22007812 8.8503125 -18.31515625 8.200625 -17.3828125 7.53125 C-15 6 -15 6 -13 6 C-13 5.34 -13 4.68 -13 4 C-11.59248779 3.13083113 -10.1735479 2.28014851 -8.75 1.4375 C-7.96109375 0.96183594 -7.1721875 0.48617187 -6.359375 -0.00390625 C-3.62549585 -1.1581102 -2.74878303 -0.83427086 0 0 Z " fill="#69B13A" transform="translate(373,147)"/>
<path d="M0 0 C0.33 0 0.66 0 1 0 C1.8382125 3.93647774 2.66973255 7.87433951 3.5 11.8125 C3.85771484 13.49182617 3.85771484 13.49182617 4.22265625 15.20507812 C4.56103516 16.81479492 4.56103516 16.81479492 4.90625 18.45703125 C5.11572266 19.44678955 5.32519531 20.43654785 5.54101562 21.45629883 C6 24 6 24 6 27 C5.34 27 4.68 27 4 27 C1.38458643 17.75558222 -0.17112777 9.62118375 0 0 Z " fill="#76B84B" transform="translate(159,630)"/>
<path d="M0 0 C0.33 0 0.66 0 1 0 C1.12117187 1.12277344 1.24234375 2.24554687 1.3671875 3.40234375 C2.36079345 12.92548608 2.36079345 12.92548608 4.1875 22.3125 C4.94638329 25.75666263 4.98666245 26.83008446 4 30 C4 29.01 4 28.02 4 27 C3.34 27 2.68 27 2 27 C0.46859805 17.87995448 -0.27675737 9.25599658 0 0 Z " fill="#81BD58" transform="translate(154,599)"/>
<path d="M0 0 C0 0.99 0 1.98 0 3 C-12.61955098 9.59803935 -12.61955098 9.59803935 -18 8 C-15.3773768 6.66180502 -12.75213401 5.3292849 -10.125 4 C-9.00544922 3.42765625 -9.00544922 3.42765625 -7.86328125 2.84375 C-7.14785156 2.4828125 -6.43242187 2.121875 -5.6953125 1.75 C-5.03547363 1.41484375 -4.37563477 1.0796875 -3.69580078 0.734375 C-2 0 -2 0 0 0 Z " fill="#74BA48" transform="translate(411,102)"/>
<path d="M0 0 C0.66 0.66 1.32 1.32 2 2 C-3.21870636 6.40328349 -8.86210987 10.0199108 -15 13 C-15.33 12.34 -15.66 11.68 -16 11 C-10.72 7.37 -5.44 3.74 0 0 Z " fill="#6DB43D" transform="translate(348,137)"/>
<path d="M0 0 C3.55880028 3.30066556 5.49064081 7.19318328 7.75 11.4375 C8.17410156 12.20126953 8.59820313 12.96503906 9.03515625 13.75195312 C9.62876953 14.86280273 9.62876953 14.86280273 10.234375 15.99609375 C10.77916504 17.00434204 10.77916504 17.00434204 11.33496094 18.03295898 C12.13887679 20.41076735 11.8147307 21.66433002 11 24 C5.04296875 12.0859375 5.04296875 12.0859375 3.99755859 9.98730469 C3.09263065 8.18453586 2.16662702 6.39238471 1.23828125 4.6015625 C0 2 0 2 0 0 Z " fill="#3C9C46" transform="translate(1049,324)"/>
<path d="M0 0 C0.33 0.66 0.66 1.32 1 2 C-1.53954308 2.53384694 -4.0806935 3.05230194 -6.625 3.5625 C-7.33785156 3.71396484 -8.05070313 3.86542969 -8.78515625 4.02148438 C-13.16017964 4.8844477 -16.58061174 5.05256724 -21 4 C-21 3.67 -21 3.34 -21 3 C-18.81462633 2.49078672 -16.62657569 1.99305563 -14.4375 1.5 C-12.61025391 1.08234375 -12.61025391 1.08234375 -10.74609375 0.65625 C-7.07777293 0.01362446 -3.71497397 -0.11474823 0 0 Z " fill="#77BC51" transform="translate(537,61)"/>
<path d="M0 0 C-4.1689219 3.64780666 -9.44803736 6 -15 6 C-15.33 6.99 -15.66 7.98 -16 9 C-16.66 7.68 -17.32 6.36 -18 5 C-12.46304815 2.11224733 -6.35608175 -0.61510469 0 0 Z " fill="#2B9365" transform="translate(1025,728)"/>
<path d="M0 0 C0.33 0 0.66 0 1 0 C1.33870183 3.99956416 1.66998725 7.99971026 2 12 C2.14308594 13.68802734 2.14308594 13.68802734 2.2890625 15.41015625 C2.77098607 21.29650845 3.11580219 27.0940881 3 33 C2.67 33 2.34 33 2 33 C2 31.02 2 29.04 2 27 C1.34 27 0.68 27 0 27 C0 18.09 0 9.18 0 0 Z " fill="#9DCD7D" transform="translate(151,565)"/>
<path d="M0 0 C3.48552591 2.70640835 4.44951301 6.46002564 5.75 10.5 C5.98332031 11.17675781 6.21664063 11.85351562 6.45703125 12.55078125 C8.12672061 17.61983817 8.12672061 17.61983817 7 21 C1.67990654 10.60163551 1.67990654 10.60163551 2 5 C1.34 5 0.68 5 0 5 C0 3.35 0 1.7 0 0 Z " fill="#419D4C" transform="translate(1087,362)"/>
<path d="M0 0 C0.99 0.66 1.98 1.32 3 2 C-6.41002278 9.48291572 -6.41002278 9.48291572 -11 12 C-11 11.01 -11 10.02 -11 9 C-8.59375 6.73828125 -8.59375 6.73828125 -5.5 4.3125 C-4.4790625 3.50425781 -3.458125 2.69601563 -2.40625 1.86328125 C-1.6121875 1.24839844 -0.818125 0.63351563 0 0 Z " fill="#6BB541" transform="translate(520,93)"/>
<path d="M0 0 C-0.66 0 -1.32 0 -2 0 C-2.33 0.99 -2.66 1.98 -3 3 C-4.5778125 3.2165625 -4.5778125 3.2165625 -6.1875 3.4375 C-9.8351314 3.90830145 -9.8351314 3.90830145 -12.6875 4.6875 C-15.49303811 5.06662677 -16.57162957 4.33432564 -19 3 C-16.586238 2.30048937 -14.16989766 1.61516081 -11.75 0.9375 C-11.06808594 0.73833984 -10.38617188 0.53917969 -9.68359375 0.33398438 C-3.41657839 -1.40009269 -3.41657839 -1.40009269 0 0 Z " fill="#7ABB53" transform="translate(516,66)"/>
<path d="M0 0 C2.7747845 0.92692801 5.54441788 1.86593675 8.3125 2.8125 C9.49102539 3.20405273 9.49102539 3.20405273 10.69335938 3.60351562 C11.8293457 3.99506836 11.8293457 3.99506836 12.98828125 4.39453125 C13.68477783 4.63018799 14.38127441 4.86584473 15.09887695 5.10864258 C17.20944119 6.09819825 18.45716621 7.2714352 20 9 C19.01 9.33 18.02 9.66 17 10 C17 9.34 17 8.68 17 8 C16.45472656 7.90203125 15.90945313 7.8040625 15.34765625 7.703125 C9.48190953 6.54000257 4.36881656 4.61460097 -1 2 C-0.67 1.34 -0.34 0.68 0 0 Z " fill="#69B23B" transform="translate(335,246)"/>
<path d="M0 0 C3.0625 1.0625 3.0625 1.0625 5 2 C5 2.66 5 3.32 5 4 C-0.852795 3.48517081 -6.3297637 2.54642808 -12 1 C-7.81048275 -1.7930115 -4.79124832 -0.91461658 0 0 Z " fill="#75B844" transform="translate(169,498)"/>
<path d="M0 0 C-2.92051551 2.92051551 -6.4677187 3.28856568 -10.375 4.1875 C-11.52742188 4.47270508 -11.52742188 4.47270508 -12.703125 4.76367188 C-13.44820312 4.93833984 -14.19328125 5.11300781 -14.9609375 5.29296875 C-15.97873291 5.53309692 -15.97873291 5.53309692 -17.01708984 5.77807617 C-19.25499448 6.02853854 -20.86353682 5.66529427 -23 5 C-21.89591797 4.70996094 -21.89591797 4.70996094 -20.76953125 4.4140625 C-19.79371094 4.15367187 -18.81789063 3.89328125 -17.8125 3.625 C-16.84957031 3.36976563 -15.88664062 3.11453125 -14.89453125 2.8515625 C-12.00949445 2.05964168 -12.00949445 2.05964168 -9.375 0.90625 C-6.19703981 -0.3063927 -3.3681016 -0.13208242 0 0 Z " fill="#2E9246" transform="translate(1088,493)"/>
<path d="M0 0 C-2.36595933 2.61500768 -4.86049226 4.38999603 -8 6 C-8.66 5.67 -9.32 5.34 -10 5 C-10 4.34 -10 3.68 -10 3 C-12.64 3.33 -15.28 3.66 -18 4 C-15.07675293 2.05116862 -13.48916982 1.51920273 -10.125 0.875 C-8.86042969 0.62363281 -8.86042969 0.62363281 -7.5703125 0.3671875 C-5.00848085 0.00121155 -2.58390011 -0.06482904 0 0 Z " fill="#DEEDD4" transform="translate(534,83)"/>
<path d="M0 0 C0.66 0.66 1.32 1.32 2 2 C-1.3 5.63 -4.6 9.26 -8 13 C-8.99 12.67 -9.98 12.34 -11 12 C-7.37 8.04 -3.74 4.08 0 0 Z " fill="#6AB33D" transform="translate(481,129)"/>
<path d="M0 0 C0.66 0 1.32 0 2 0 C1.68321942 3.14632918 1.40104558 4.61766446 -0.92578125 6.8359375 C-2.10720703 7.59777344 -2.10720703 7.59777344 -3.3125 8.375 C-4.48232422 9.16003906 -4.48232422 9.16003906 -5.67578125 9.9609375 C-8 11 -8 11 -10.29296875 10.6640625 C-10.85628906 10.44492188 -11.41960938 10.22578125 -12 10 C-11.30132813 9.51789063 -10.60265625 9.03578125 -9.8828125 8.5390625 C-8.97273437 7.90742187 -8.06265625 7.27578125 -7.125 6.625 C-6.22007812 5.99851562 -5.31515625 5.37203125 -4.3828125 4.7265625 C-1.96505875 3.0701905 -1.96505875 3.0701905 0 1 C0 0.67 0 0.34 0 0 Z " fill="#65B139" transform="translate(533,82)"/>
<path d="M0 0 C0 0.33 0 0.66 0 1 C-5.94 1.495 -5.94 1.495 -12 2 C-12 2.33 -12 2.66 -12 3 C-17.28 2.67 -22.56 2.34 -28 2 C-28 1.67 -28 1.34 -28 1 C-18.64087671 0.00736571 -9.39605802 -0.10731538 0 0 Z " fill="#81C05F" transform="translate(605,53)"/>
<path d="M0 0 C2.75203995 2.66151232 5.1793024 5.39422156 7.5 8.4375 C8.09941406 9.21867188 8.69882812 9.99984375 9.31640625 10.8046875 C9.87199219 11.52914062 10.42757812 12.25359375 11 13 C12.32917292 14.66998649 13.66014102 16.33857487 15 18 C8.69798535 15.25079898 2.85353365 9.24210486 0 3 C0 2.01 0 1.02 0 0 Z " fill="#0D385C" transform="translate(703,961)"/>
<path d="M0 0 C0.33 0.66 0.66 1.32 1 2 C1.66 2.33 2.32 2.66 3 3 C1.06441401 3.67220351 -0.87354372 4.33758077 -2.8125 5 C-3.89144531 5.37125 -4.97039063 5.7425 -6.08203125 6.125 C-9 7 -9 7 -12 7 C-11.67 6.01 -11.34 5.02 -11 4 C-8.49609375 2.83203125 -8.49609375 2.83203125 -5.4375 1.8125 C-4.42558594 1.46832031 -3.41367187 1.12414062 -2.37109375 0.76953125 C-1.58863281 0.51558594 -0.80617188 0.26164063 0 0 Z " fill="#3D9B75" transform="translate(1020,747)"/>
<path d="M0 0 C2.01003635 3.01505452 2.99171541 5.57496212 4.125 9 C4.47820312 10.051875 4.83140625 11.10375 5.1953125 12.1875 C6 15 6 15 6 18 C5.34 18 4.68 18 4 18 C3.13237686 15.75438718 2.2807897 13.50473745 1.4375 11.25 C1.19064453 10.61578125 0.94378906 9.9815625 0.68945312 9.328125 C-0.58197079 5.88990821 -1.46686355 3.47831118 0 0 Z " fill="#79B74F" transform="translate(171,678)"/>
<path d="M0 0 C2.875 -0.125 2.875 -0.125 6 0 C6.66 0.66 7.32 1.32 8 2 C0.57359158 3.60881575 -6.40501039 4.26442904 -14 4 C-14 3.67 -14 3.34 -14 3 C-9.23692563 2.04738513 -4.8333472 1.91666643 0 2 C0 1.34 0 0.68 0 0 Z " fill="#349744" transform="translate(959,516)"/>
<path d="M0 0 C0 0.33 0 0.66 0 1 C3.96 1.33 7.92 1.66 12 2 C12 2.33 12 2.66 12 3 C2.26055028 3.12276617 -7.29056184 2.83779436 -17 2 C-17 1.67 -17 1.34 -17 1 C-5.47835991 -0.14806378 -5.47835991 -0.14806378 0 0 Z " fill="#7FBC64" transform="translate(584,316)"/>
<path d="M0 0 C2.02558881 3.34939881 2.21738987 5.86962551 2.125 9.75 C2.10695313 10.73484375 2.08890625 11.7196875 2.0703125 12.734375 C2.04710937 13.48203125 2.02390625 14.2296875 2 15 C1.34 15 0.68 15 0 15 C-0.98783094 12.03650719 -1.13410525 10.0287337 -1.125 6.9375 C-1.12757812 6.05964844 -1.13015625 5.18179687 -1.1328125 4.27734375 C-1 2 -1 2 0 0 Z " fill="#359853" transform="translate(1120,505)"/>
<path d="M0 0 C0.495 0.309375 0.99 0.61875 1.5 0.9375 C1.5 1.5975 1.5 2.2575 1.5 2.9375 C-0.22926874 2.62556536 -1.95841044 2.31292638 -3.6875 2 C-4.65042969 1.82597656 -5.61335937 1.65195313 -6.60546875 1.47265625 C-9.24239972 0.9851265 -11.8719905 0.47078895 -14.5 -0.0625 C-10.02658858 -3.23116643 -4.75960973 -2.02283414 0 0 Z " fill="#6BB347" transform="translate(663.5,76.0625)"/>
<path d="M0 0 C1 3 1 3 -0.43359375 6.35546875 C-1.09148807 7.6380304 -1.75989743 8.91524057 -2.4375 10.1875 C-2.77587891 10.84169922 -3.11425781 11.49589844 -3.46289062 12.16992188 C-4.29969098 13.78459299 -5.14869746 15.39292763 -6 17 C-6.99 17 -7.98 17 -9 17 C-6.03 11.39 -3.06 5.78 0 0 Z " fill="#72B841" transform="translate(193,303)"/>
<path d="M0 0 C0 0.33 0 0.66 0 1 C-1.26457031 1.20496094 -2.52914062 1.40992188 -3.83203125 1.62109375 C-5.49220863 1.89310021 -7.15236373 2.16524272 -8.8125 2.4375 C-10.06256836 2.63956055 -10.06256836 2.63956055 -11.33789062 2.84570312 C-12.54155273 3.04389648 -12.54155273 3.04389648 -13.76953125 3.24609375 C-14.87711792 3.42676392 -14.87711792 3.42676392 -16.00708008 3.61108398 C-18.19623596 3.99393076 -18.19623596 3.99393076 -21 5 C-23.00875442 4.72428861 -25.01178687 4.39764263 -27 4 C-27 3.67 -27 3.34 -27 3 C-24.00114586 2.49212954 -21.00121874 1.99353375 -18 1.5 C-16.74123047 1.28537109 -16.74123047 1.28537109 -15.45703125 1.06640625 C-10.22817799 0.21519758 -5.29724973 -0.14714583 0 0 Z " fill="#8FC571" transform="translate(568,56)"/>
<path d="M0 0 C0.66 0 1.32 0 2 0 C1.32418477 6.08233706 0.26361972 12.01314152 -1 18 C-3 15 -3 15 -2.79296875 12.44140625 C-2.59316406 11.49136719 -2.39335937 10.54132813 -2.1875 9.5625 C-1.99542969 8.61503906 -1.80335938 7.66757812 -1.60546875 6.69140625 C-1.10153613 4.45134447 -0.57289988 2.223272 0 0 Z " fill="#6BB23C" transform="translate(160,440)"/>
<path d="M0 0 C-0.99 1.485 -0.99 1.485 -2 3 C-2.86625 2.814375 -3.7325 2.62875 -4.625 2.4375 C-8.11365088 1.98526748 -10.5597514 2.38075525 -14 3 C-16.67364863 3.08718419 -19.32384126 3.04614067 -22 3 C-22 2.67 -22 2.34 -22 2 C-19.08483516 1.46915208 -16.16839443 0.95000945 -13.25 0.4375 C-12.425 0.28603516 -11.6 0.13457031 -10.75 -0.02148438 C-9.95078125 -0.16005859 -9.1515625 -0.29863281 -8.328125 -0.44140625 C-7.5949707 -0.57232666 -6.86181641 -0.70324707 -6.10644531 -0.83813477 C-3.83766713 -1.01247412 -2.16221421 -0.66874807 0 0 Z " fill="#7FC075" transform="translate(787,285)"/>
<path d="M0 0 C5.28 0 10.56 0 16 0 C12.36280395 2.42479736 10.14296518 2.38662577 5.8125 2.625 C4.54019531 2.69976562 3.26789062 2.77453125 1.95703125 2.8515625 C0.98121094 2.90054688 0.00539063 2.94953125 -1 3 C-0.67 2.01 -0.34 1.02 0 0 Z " fill="#6BB544" transform="translate(569,55)"/>
<path d="M0 0 C-2.00395139 2.71122835 -3.0944255 3.01854787 -6.5 3.6875 C-12.64566929 4.23622047 -12.64566929 4.23622047 -16 2 C-10.42932723 0.40837921 -5.78898419 -0.20674944 0 0 Z " fill="#48A25B" transform="translate(1055,482)"/>
<path d="M0 0 C4.30249956 2.15124978 6.24929463 8.83552969 7.76953125 13.21875 C8.22034947 14.8014787 8.61725859 16.39944503 9 18 C6 17 6 17 4.39453125 13.9453125 C3.85592569 12.67659719 3.32900516 11.40287203 2.8125 10.125 C2.40354492 9.16787109 2.40354492 9.16787109 1.98632812 8.19140625 C0.7832624 5.30284243 0 3.1584173 0 0 Z " fill="#3A9A46" transform="translate(1063,353)"/>
<path d="M0 0 C-0.99 0 -1.98 0 -3 0 C-3 0.66 -3 1.32 -3 2 C-6.31371 4.20914 -7.3446021 4.22481553 -11.1875 4.125 C-12.08855469 4.10695313 -12.98960937 4.08890625 -13.91796875 4.0703125 C-14.60503906 4.04710938 -15.29210937 4.02390625 -16 4 C-13.41588269 2.27725513 -11.45097344 1.31104478 -8.5625 0.3125 C-7.41974609 -0.09548828 -7.41974609 -0.09548828 -6.25390625 -0.51171875 C-3.78170279 -1.04729142 -2.37016716 -0.80445309 0 0 Z " fill="#7BBD55" transform="translate(477,77)"/>
<path d="M0 0 C1.91635217 -0.05423638 3.83314925 -0.09289963 5.75 -0.125 C7.35101562 -0.15980469 7.35101562 -0.15980469 8.984375 -0.1953125 C11.92470106 -0.00487687 13.52361878 0.47329896 16 2 C16 2.66 16 3.32 16 4 C14.27073126 3.68806536 12.54158956 3.37542638 10.8125 3.0625 C9.84957031 2.88847656 8.88664063 2.71445313 7.89453125 2.53515625 C5.25760028 2.0476265 2.6280095 1.53328895 0 1 C0 0.67 0 0.34 0 0 Z " fill="#68B14B" transform="translate(741,87)"/>
<path d="M0 0 C2.86724686 0.57344937 3.8614515 0.8614515 6 3 C0.72 3.66 -4.56 4.32 -10 5 C-9.01 3.68 -8.02 2.36 -7 1 C-4.83125748 1.50603992 -3.00032373 1.99983813 -1 3 C-0.67 2.01 -0.34 1.02 0 0 Z " fill="#61B070" transform="translate(981,513)"/>
<path d="M0 0 C3.51716303 3.51716303 3.54676163 5.19567333 4 10 C3.34 10 2.68 10 2 10 C2 11.98 2 13.96 2 16 C1.67 16 1.34 16 1 16 C0.67 10.72 0.34 5.44 0 0 Z " fill="#61B169" transform="translate(895,478)"/>
<path d="M0 0 C3.66829266 5.50243899 3.12789125 11.60543766 3 18 C1.10824362 14.69541291 0.42438457 11.61991762 -0.1875 7.875 C-0.36667969 6.82054687 -0.54585937 5.76609375 -0.73046875 4.6796875 C-1 2 -1 2 0 0 Z " fill="#3B9D40" transform="translate(909,436)"/>
<path d="M0 0 C0.66 0.33 1.32 0.66 2 1 C1.54738642 2.43931117 1.08767021 3.87638999 0.625 5.3125 C0.36976563 6.11300781 0.11453125 6.91351563 -0.1484375 7.73828125 C-1 10 -1 10 -3 13 C-3.66 13 -4.32 13 -5 13 C-4.54554036 11.58208592 -4.08625056 10.16571954 -3.625 8.75 C-3.24214844 7.56664062 -3.24214844 7.56664062 -2.8515625 6.359375 C-2.04826333 4.13372042 -1.10288338 2.09068328 0 0 Z " fill="#73B843" transform="translate(173,343)"/>
<path d="M0 0 C1.73030291 0.28484846 3.45920714 0.57819938 5.1875 0.875 C6.15042969 1.03742188 7.11335938 1.19984375 8.10546875 1.3671875 C10.91032604 1.98039517 13.37224747 2.85666343 16 4 C15.67 4.66 15.34 5.32 15 6 C13.24859857 5.54705135 11.49892656 5.08741252 9.75 4.625 C8.77546875 4.36976563 7.8009375 4.11453125 6.796875 3.8515625 C4.34162697 3.10401491 2.24382595 2.22876183 0 1 C0 0.67 0 0.34 0 0 Z " fill="#67AF36" transform="translate(357,275)"/>
<path d="M0 0 C10.09117362 3.09990301 10.09117362 3.09990301 14 6 C14 6.66 14 7.32 14 8 C9.0276578 6.50829734 4.58154261 4.39542583 0 2 C0 1.34 0 0.68 0 0 Z " fill="#6CB13A" transform="translate(293,248)"/>
<path d="M0 0 C0.33 0 0.66 0 1 0 C0.67 6.93 0.34 13.86 0 21 C-0.33 21 -0.66 21 -1 21 C-1.22212255 18.25048307 -1.42815588 15.50134388 -1.625 12.75 C-1.68945312 11.97269531 -1.75390625 11.19539063 -1.8203125 10.39453125 C-2.30707097 3.27568856 -2.30707097 3.27568856 0 0 Z " fill="#86C15C" transform="translate(152,498)"/>
<path d="M0 0 C0.66 0 1.32 0 2 0 C3.59162079 5.57067277 4.20674944 10.21101581 4 16 C1.15072098 10.70848182 -0.28788143 6.04551009 0 0 Z " fill="#419D54" transform="translate(1107,425)"/>
<path d="M0 0 C0.59296875 0.34804687 1.1859375 0.69609375 1.796875 1.0546875 C0.05453675 1.78166311 -1.69739845 2.48566994 -3.453125 3.1796875 C-4.42765625 3.57414062 -5.4021875 3.96859375 -6.40625 4.375 C-9.203125 5.0546875 -9.203125 5.0546875 -11.5625 4.171875 C-12.10390625 3.80320312 -12.6453125 3.43453125 -13.203125 3.0546875 C-11.553125 3.0546875 -9.903125 3.0546875 -8.203125 3.0546875 C-8.203125 2.3946875 -8.203125 1.7346875 -8.203125 1.0546875 C-2.74543269 -1.17800481 -2.74543269 -1.17800481 0 0 Z " fill="#67B03C" transform="translate(589.203125,77.9453125)"/>
<path d="M0 0 C0.33 0 0.66 0 1 0 C3.20927172 5.97802937 2.93213141 10.73960391 2 17 C-0.25998595 13.40537669 -0.20868087 10.43404325 -0.125 6.25 C-0.09792969 4.49429687 -0.09792969 4.49429687 -0.0703125 2.703125 C-0.04710937 1.81109375 -0.02390625 0.9190625 0 0 Z " fill="#389D43" transform="translate(895,465)"/>
<path d="M0 0 C3.32532111 2.69192661 4.52454943 6.06546515 6 10 C6 10.99 6 11.98 6 13 C5.34 13 4.68 13 4 13 C3.32404685 11.58774074 2.65959941 10.16997095 2 8.75 C1.62875 7.96109375 1.2575 7.1721875 0.875 6.359375 C0 4 0 4 0 0 Z " fill="#3D9B48" transform="translate(1077,339)"/>
<path d="M0 0 C5.78591511 -0.10477512 11.29309366 0.00749455 17 1 C17 1.33 17 1.66 17 2 C11.92681313 2.84553115 7.14621987 3.34889626 2 3 C1.34 2.01 0.68 1.02 0 0 Z " fill="#82C065" transform="translate(657,53)"/>
<path d="M0 0 C0 0.66 0 1.32 0 2 C-6.02596573 3.0712828 -11.88909517 3.09945415 -18 3 C-18 2.67 -18 2.34 -18 2 C-15.7505194 1.66317938 -13.50039296 1.33066999 -11.25 1 C-9.99703125 0.814375 -8.7440625 0.62875 -7.453125 0.4375 C-4 0 -4 0 0 0 Z " fill="#309340" transform="translate(936,502)"/>
<path d="M0 0 C4.455 0.99 4.455 0.99 9 2 C9.33 3.32 9.66 4.64 10 6 C5.75354935 6 3.61475228 4.18249194 0 2 C0 1.34 0 0.68 0 0 Z " fill="#DFEED7" transform="translate(719,82)"/>
<path d="M0 0 C1.2065625 0.0309375 1.2065625 0.0309375 2.4375 0.0625 C0.17785542 3.45196688 -0.76979138 3.91586716 -4.5625 5.0625 C-7.375 5.1875 -7.375 5.1875 -9.5625 5.0625 C-9.2325 4.0725 -8.9025 3.0825 -8.5625 2.0625 C-7.3559375 1.8459375 -7.3559375 1.8459375 -6.125 1.625 C-3.22295593 0.98796594 -2.96966232 0.07243079 0 0 Z " fill="#32916A" transform="translate(1033.5625,742.9375)"/>
<path d="M0 0 C-1.5625 2.0625 -1.5625 2.0625 -4 4 C-7.75 3.75 -7.75 3.75 -11 3 C-3.71428571 -1.85714286 -3.71428571 -1.85714286 0 0 Z M-9 4 C-7 5 -7 5 -7 5 Z " fill="#45A078" transform="translate(1032,725)"/>
<path d="M0 0 C0.33 0 0.66 0 1 0 C0.88623383 2.12563103 0.75864369 4.2505261 0.625 6.375 C0.52058594 8.15003906 0.52058594 8.15003906 0.4140625 9.9609375 C0 13 0 13 -2 15 C-3.08056059 11.02840314 -2.85815614 8.57446843 -1.5625 4.6875 C-1.27503906 3.80449219 -0.98757813 2.92148437 -0.69140625 2.01171875 C-0.46324219 1.34785156 -0.23507812 0.68398438 0 0 Z " fill="#258D59" transform="translate(1114,623)"/>
<path d="M0 0 C0 0.66 0 1.32 0 2 C1.65 2 3.3 2 5 2 C5 2.66 5 3.32 5 4 C3.58249437 3.88490339 2.16598831 3.75746342 0.75 3.625 C-0.03890625 3.55539062 -0.8278125 3.48578125 -1.640625 3.4140625 C-4.085877 2.98492887 -5.84836903 2.21399362 -8 1 C-5.07175348 0.02391783 -3.04386724 -0.08226668 0 0 Z " fill="#75B647" transform="translate(183,501)"/>
<path d="M0 0 C0.66 0.33 1.32 0.66 2 1 C-0.33333333 5.66666667 -2.66666667 10.33333333 -5 15 C-5.66 15 -6.32 15 -7 15 C-5.63408831 11.45756548 -4.09068516 8.07372071 -2.375 4.6875 C-1.70597656 3.36298828 -1.70597656 3.36298828 -1.0234375 2.01171875 C-0.68570312 1.34785156 -0.34796875 0.68398437 0 0 Z " fill="#65B03B" transform="translate(415,222)"/>
<path d="M0 0 C2.52940738 3.13164723 4.44920018 6.27808042 6 10 C5.67 11.32 5.34 12.64 5 14 C3.02 9.71 1.04 5.42 -1 1 C-0.67 0.67 -0.34 0.34 0 0 Z " fill="#65AE3B" transform="translate(187,766)"/>
<path d="M0 0 C0.33 0 0.66 0 1 0 C1 1.98 1 3.96 1 6 C-2.3 5.01 -5.6 4.02 -9 3 C-8.01 2.34 -7.02 1.68 -6 1 C-6 1.66 -6 2.32 -6 3 C-4.02 2.67 -2.04 2.34 0 2 C0 1.34 0 0.68 0 0 Z " fill="#7BBA57" transform="translate(223,742)"/>
<path d="M0 0 C0.66 0 1.32 0 2 0 C1.55149342 1.81495662 1.09090429 3.62693134 0.625 5.4375 C0.24214844 6.95150391 0.24214844 6.95150391 -0.1484375 8.49609375 C-1 11 -1 11 -3 12 C-2.14285714 3.42857143 -2.14285714 3.42857143 0 0 Z " fill="#2E9368" transform="translate(1083,675)"/>
<path d="M0 0 C2.50474631 4.67552644 3.18853877 7.96345035 2.5625 13.25 C2.46066406 14.14203125 2.35882812 15.0340625 2.25390625 15.953125 C2.12822266 16.96632813 2.12822266 16.96632813 2 18 C1.67 18 1.34 18 1 18 C-0.0712828 11.97403427 -0.09945415 6.11090483 0 0 Z " fill="#35993E" transform="translate(897,488)"/>
<path d="M0 0 C6.6 0.33 13.2 0.66 20 1 C20 1.33 20 1.66 20 2 C15.05 2.33 10.1 2.66 5 3 C5 2.34 5 1.68 5 1 C3.35 1 1.7 1 0 1 C0 0.67 0 0.34 0 0 Z " fill="#8BC571" transform="translate(537,294)"/>
<path d="M0 0 C-2.89399469 2.34211663 -5.67155428 3.86862171 -9.125 5.25 C-10.42824219 5.78367187 -10.42824219 5.78367187 -11.7578125 6.328125 C-14 7 -14 7 -16 6 C-10.375 3 -10.375 3 -7 3 C-7 2.34 -7 1.68 -7 1 C-4.53721199 -0.231394 -2.7204945 -0.07159196 0 0 Z " fill="#3F9C39" transform="translate(944,257)"/>
<path d="M0 0 C0.99 0.33 1.98 0.66 3 1 C-2.445 4.96 -2.445 4.96 -8 9 C-8 8.01 -8 7.02 -8 6 C-6.35546875 4.359375 -6.35546875 4.359375 -4.1875 2.75 C-3.47980469 2.20859375 -2.77210938 1.6671875 -2.04296875 1.109375 C-1.36878906 0.74328125 -0.69460938 0.3771875 0 0 Z " fill="#69B23B" transform="translate(345,162)"/>
<path d="M0 0 C0.66 0 1.32 0 2 0 C1.40895235 4.84659077 0.02055843 8.60748167 -2 13 C-3.18771723 9.57056481 -2.80226223 7.62215325 -1.5625 4.25 C-1.27503906 3.45078125 -0.98757813 2.6515625 -0.69140625 1.828125 C-0.46324219 1.22484375 -0.23507812 0.6215625 0 0 Z " fill="#1A4465" transform="translate(986,1126)"/>
<path d="M0 0 C0.99 0.33 1.98 0.66 3 1 C1.88096454 2.81618856 0.75458716 4.62785526 -0.375 6.4375 C-1.00148438 7.44683594 -1.62796875 8.45617187 -2.2734375 9.49609375 C-4 12 -4 12 -6 13 C-4.58707905 8.1725201 -2.57025846 4.2837641 0 0 Z " fill="#2C9271" transform="translate(1043,768)"/>
<path d="M0 0 C0.33 0.66 0.66 1.32 1 2 C3.57951874 2.69093896 3.57951874 2.69093896 6.5625 3.125 C7.57441406 3.29257812 8.58632812 3.46015625 9.62890625 3.6328125 C10.80259766 3.81457031 10.80259766 3.81457031 12 4 C12 4.66 12 5.32 12 6 C10.56208484 5.85831863 9.1246763 5.71148957 7.6875 5.5625 C6.88699219 5.48128906 6.08648437 5.40007812 5.26171875 5.31640625 C3 5 3 5 0 4 C0 2.68 0 1.36 0 0 Z " fill="#73B744" transform="translate(155,475)"/>
<path d="M0 0 C0.66 0.33 1.32 0.66 2 1 C1.125 8.75 1.125 8.75 0 11 C-0.66 11 -1.32 11 -2 11 C-1.34 7.37 -0.68 3.74 0 0 Z " fill="#6AB236" transform="translate(141,443)"/>
<path d="M0 0 C-2.64315808 2.64997034 -3.85115341 2.9969914 -7.671875 3.07421875 C-9.03272226 2.96191582 -10.39224897 2.832515 -11.75 2.6875 C-12.44738281 2.62626953 -13.14476562 2.56503906 -13.86328125 2.50195312 C-15.57689681 2.34937092 -17.2886995 2.17666411 -19 2 C-19 1.67 -19 1.34 -19 1 C-12.63849395 0.34513908 -6.39628979 -0.12068471 0 0 Z " fill="#8CC77F" transform="translate(728,293)"/>
<path d="M0 0 C5.61 0.66 11.22 1.32 17 2 C17 2.33 17 2.66 17 3 C14.69 3 12.38 3 10 3 C9.67 3.66 9.34 4.32 9 5 C8.67 4.01 8.34 3.02 8 2 C6.35 2.33 4.7 2.66 3 3 C3 2.34 3 1.68 3 1 C2.01 0.67 1.02 0.34 0 0 Z " fill="#89C56A" transform="translate(473,285)"/>
<path d="M0 0 C-6.435 2.97 -6.435 2.97 -13 6 C-11 2 -11 2 -7.625 0.1875 C-4 -1 -4 -1 0 0 Z " fill="#6AB23B" transform="translate(406,128)"/>
<path d="M0 0 C-2.35468455 2.72647685 -4.5408417 3.98756342 -8 5 C-10.16015625 4.546875 -10.16015625 4.546875 -12 4 C-10.56988027 3.13353333 -9.13059381 2.28218171 -7.6875 1.4375 C-6.48673828 0.72400391 -6.48673828 0.72400391 -5.26171875 -0.00390625 C-3 -1 -3 -1 0 0 Z " fill="#76B949" transform="translate(390,114)"/>
<path d="M0 0 C2.64465038 3.1254959 3.84414715 6.08788267 5 10 C4.34 10.66 3.68 11.32 3 12 C-0.53846154 4 -0.53846154 4 -1 1 C-0.67 0.67 -0.34 0.34 0 0 Z " fill="#4CA455" transform="translate(1073,329)"/>
<path d="M0 0 C2.125 0.375 2.125 0.375 4 1 C4 1.66 4 2.32 4 3 C5.98 2.67 7.96 2.34 10 2 C10.99 3.485 10.99 3.485 12 5 C10.41590006 4.88512252 8.83271037 4.75765492 7.25 4.625 C6.36828125 4.55539062 5.4865625 4.48578125 4.578125 4.4140625 C2.00933618 4.00149945 0.24158985 3.28839043 -2 2 C-1.34 1.34 -0.68 0.68 0 0 Z " fill="#8CC46A" transform="translate(459,301)"/>
<path d="M0 0 C-3.63 1.98 -7.26 3.96 -11 6 C-11.66 5.34 -12.32 4.68 -13 4 C-11.59248779 3.13083113 -10.1735479 2.28014851 -8.75 1.4375 C-7.96109375 0.96183594 -7.1721875 0.48617187 -6.359375 -0.00390625 C-4 -1 -4 -1 0 0 Z " fill="#71B644" transform="translate(373,147)"/>
<path d="M0 0 C0.66 0.33 1.32 0.66 2 1 C1.14285714 9.57142857 1.14285714 9.57142857 -1 13 C-2.51403812 8.15507803 -1.36602172 4.7408989 0 0 Z " fill="#73B950" transform="translate(378,365)"/>
<path d="M0 0 C0.33 0.66 0.66 1.32 1 2 C1.99 2.66 2.98 3.32 4 4 C-0.34464536 3.39174965 -4.67551867 2.73832608 -9 2 C-5.86501708 0.14223235 -3.62528568 -0.20140476 0 0 Z " fill="#74B256" transform="translate(737,83)"/>
<path d="M0 0 C-0.99 0 -1.98 0 -3 0 C-3.33 0.99 -3.66 1.98 -4 3 C-6.64 2.67 -9.28 2.34 -12 2 C-7.72170329 -0.29194467 -4.74957752 -1.52664992 0 0 Z " fill="#53AB68" transform="translate(1085,475)"/>
<path d="M0 0 C0.33 0 0.66 0 1 0 C1 2.31 1 4.62 1 7 C-0.98 7.99 -0.98 7.99 -3 9 C-3.99 8.01 -4.98 7.02 -6 6 C-4.02 5.67 -2.04 5.34 0 5 C0 3.35 0 1.7 0 0 Z " fill="#52AA66" transform="translate(1096,466)"/>
<path d="M0 0 C0.33 0 0.66 0 1 0 C0.67 2.97 0.34 5.94 0 9 C-0.99 9.33 -1.98 9.66 -3 10 C-2.39009109 6.44219804 -1.4216319 3.3171411 0 0 Z " fill="#6BB437" transform="translate(155,391)"/>
<path d="M0 0 C2.1640625 0.77734375 2.1640625 0.77734375 4.625 1.9375 C5.44226563 2.31777344 6.25953125 2.69804688 7.1015625 3.08984375 C7.72804688 3.39019531 8.35453125 3.69054687 9 4 C9 4.66 9 5.32 9 6 C7.53932801 5.54917531 6.08151968 5.08906463 4.625 4.625 C3.81289063 4.36976562 3.00078125 4.11453125 2.1640625 3.8515625 C0 3 0 3 -2 1 C-1.34 0.67 -0.68 0.34 0 0 Z " fill="#65AC4F" transform="translate(823,113)"/>
<path d="M0 0 C3.14737182 0.69941596 6.02588876 1.76078698 9 3 C8.67 3.66 8.34 4.32 8 5 C5.36 4.34 2.72 3.68 0 3 C0 2.01 0 1.02 0 0 Z " fill="#73B449" transform="translate(192,714)"/>
<path d="M0 0 C0.66 0 1.32 0 2 0 C2.29296875 6.0546875 2.29296875 6.0546875 2 8 C1.01 8.66 0.02 9.32 -1 10 C-1.125 2.25 -1.125 2.25 0 0 Z " fill="#3A9D65" transform="translate(1119,581)"/>
<path d="M0 0 C1.90401138 1.90401138 2.93520439 3.33425686 3.19921875 6.046875 C3.1886578 8.03233273 3.09915043 10.0169914 3 12 C2.34 12 1.68 12 1 12 C0.01751476 7.9472484 -0.08159574 4.16138263 0 0 Z " fill="#2B9343" transform="translate(1096,459)"/>
<path d="M0 0 C0.66 0.66 1.32 1.32 2 2 C1.401875 2.7425 0.80375 3.485 0.1875 4.25 C-1.58173222 6.47417764 -3.30860915 8.71662235 -5 11 C-5.33 10.34 -5.66 9.68 -6 9 C-4.02 6.03 -2.04 3.06 0 0 Z " fill="#6BB53A" transform="translate(208,279)"/>
<path d="M0 0 C0.66 0.33 1.32 0.66 2 1 C-0.06756277 3.7972908 -1.14440371 4.02692273 -4.6875 4.6875 C-5.780625 4.790625 -6.87375 4.89375 -8 5 C-5.45378681 2.99940392 -3.01962385 1.20784954 0 0 Z " fill="#7FBE56" transform="translate(421,96)"/>
<path d="M0 0 C2.97 0 5.94 0 9 0 C5.31265242 2.45823172 2.30300029 3.01242616 -2 4 C-1.34 2.68 -0.68 1.36 0 0 Z " fill="#79BA4F" transform="translate(478,94)"/>
<path d="M0 0 C-3.26545761 1.88391785 -6.28111761 2.49287967 -10 3 C-9.67 2.01 -9.34 1.02 -9 0 C-5.8033 -1.37001429 -3.30096158 -0.8252404 0 0 Z " fill="#6BB53E" transform="translate(504,89)"/>
<path d="M0 0 C0.99 0.33 1.98 0.66 3 1 C-0.465 3.97 -0.465 3.97 -4 7 C-4 4 -4 4 -2 1.8125 C-1.34 1.214375 -0.68 0.61625 0 0 Z " fill="#EDF2F5" transform="translate(977,1148)"/>
<path d="M0 0 C2.4294516 3.6441774 2.16179575 5.71241272 2 10 C1.34 9.67 0.68 9.34 0 9 C-1.28571429 2.57142857 -1.28571429 2.57142857 0 0 Z " fill="#43A155" transform="translate(1105,414)"/>
<path d="M0 0 C0.99 0.495 0.99 0.495 2 1 C2.4140625 3.06640625 2.4140625 3.06640625 2.625 5.5625 C2.69976563 6.38878906 2.77453125 7.21507812 2.8515625 8.06640625 C2.92503906 9.02353516 2.92503906 9.02353516 3 10 C2.34 9.67 1.68 9.34 1 9 C0.5859375 6.93359375 0.5859375 6.93359375 0.375 4.4375 C0.30023437 3.61121094 0.22546875 2.78492188 0.1484375 1.93359375 C0.09945313 1.29550781 0.05046875 0.65742188 0 0 Z " fill="#359848" transform="translate(1102,406)"/>
<path d="M0 0 C0.99 0.33 1.98 0.66 3 1 C2.34 3.64 1.68 6.28 1 9 C0.34 8.34 -0.32 7.68 -1 7 C-0.625 3.375 -0.625 3.375 0 0 Z " fill="#75B94F" transform="translate(365,343)"/>
<path d="M0 0 C0.66 0.33 1.32 0.66 2 1 C0.02 3.31 -1.96 5.62 -4 8 C-4.66 7.34 -5.32 6.68 -6 6 C-4.02 4.02 -2.04 2.04 0 0 Z " fill="#EEF6E9" transform="translate(520,119)"/>
<path d="M0 0 C0 0.66 0 1.32 0 2 C-1.98 2.33 -3.96 2.66 -6 3 C-6.33 2.01 -6.66 1.02 -7 0 C-3.98968256 -0.93423645 -3.13349732 -1.04449911 0 0 Z " fill="#50A764" transform="translate(1067,498)"/>
<path d="M0 0 C1.22589844 0.01353516 1.22589844 0.01353516 2.4765625 0.02734375 C3.41628906 0.04474609 3.41628906 0.04474609 4.375 0.0625 C-0.79833569 2.69776912 -0.79833569 2.69776912 -3.625 3.0625 C-4.615 2.4025 -5.605 1.7425 -6.625 1.0625 C-4.21954362 -0.14022819 -2.67503047 -0.03821472 0 0 Z " fill="#2F9644" transform="translate(997.625,492.9375)"/>
<path d="M0 0 C0.93065133 2.60582371 1.14917407 3.64198224 0.0625 6.25 C-0.4634375 7.11625 -0.4634375 7.11625 -1 8 C-1.66 8 -2.32 8 -3 8 C-2.74438677 5.6568787 -2.40729228 3.32156597 -2 1 C-1.34 0.67 -0.68 0.34 0 0 Z " fill="#69B442" transform="translate(362,360)"/>
<path d="M0 0 C-5.17578125 3.22265625 -5.17578125 3.22265625 -7 4 C-7.99 3.67 -8.98 3.34 -10 3 C-9.34 3 -8.68 3 -8 3 C-8 2.34 -8 1.68 -8 1 C-2.25 -1.125 -2.25 -1.125 0 0 Z " fill="#419D3D" transform="translate(956,252)"/>
<path d="M0 0 C0.99 0.33 1.98 0.66 3 1 C2.01 2.32 1.02 3.64 0 5 C-0.99 4.67 -1.98 4.34 -3 4 C-2.01 2.68 -1.02 1.36 0 0 Z " fill="#67AD3C" transform="translate(504,106)"/>
<path d="M0 0 C0.66 0 1.32 0 2 0 C1.75 2.375 1.75 2.375 1 5 C-1.0625 6.3125 -1.0625 6.3125 -3 7 C-3.66 6.34 -4.32 5.68 -5 5 C-4.175 4.360625 -3.35 3.72125 -2.5 3.0625 C-1.675 2.381875 -0.85 1.70125 0 1 C0 0.67 0 0.34 0 0 Z " fill="#73B848" transform="translate(533,82)"/>
<path d="M0 0 C2.66735273 2.48952921 4.55746343 4.63408134 6 8 C5.01 8 4.02 8 3 8 C0.89229241 5.11165997 0 3.61537605 0 0 Z " fill="#173F62" transform="translate(703,961)"/>
<path d="M0 0 C0.66 0.66 1.32 1.32 2 2 C0.02 4.97 0.02 4.97 -2 8 C-2.66 7.34 -3.32 6.68 -4 6 C-2.68 4.02 -1.36 2.04 0 0 Z " fill="#2E9675" transform="translate(1036,781)"/>
<path d="M0 0 C0.99 0.33 1.98 0.66 3 1 C3.33 2.98 3.66 4.96 4 7 C3.01 7.495 3.01 7.495 2 8 C1.34 5.36 0.68 2.72 0 0 Z " fill="#6DB43C" transform="translate(157,699)"/>
<path d="M0 0 C0.33 0 0.66 0 1 0 C2.10228696 4.40914783 2.07654536 8.48382401 2 13 C1.67 13 1.34 13 1 13 C1 11.02 1 9.04 1 7 C0.34 7 -0.32 7 -1 7 C-0.67 4.69 -0.34 2.38 0 0 Z " fill="#85C05E" transform="translate(152,585)"/>
<path d="M0 0 C1.27351308 2.54702616 0.80191925 3.4282945 0.0625 6.125 C-0.13214844 6.84945313 -0.32679688 7.57390625 -0.52734375 8.3203125 C-0.68332031 8.87460937 -0.83929688 9.42890625 -1 10 C-2.57035335 7.50590939 -3.0274945 6.29556584 -2.75 3.3125 C-2.5025 2.549375 -2.255 1.78625 -2 1 C-1.34 0.67 -0.68 0.34 0 0 Z " fill="#7FBF5A" transform="translate(164,430)"/>
<path d="M0 0 C0.66 0.66 1.32 1.32 2 2 C1.96712417 4.72869407 1.43602229 7.2966618 1 10 C-1.56687367 6.1496895 -0.83288724 4.41430237 0 0 Z " fill="#74B743" transform="translate(147,415)"/>
<path d="M0 0 C0 0.66 0 1.32 0 2 C-3.465 3.485 -3.465 3.485 -7 5 C-7.66 4.34 -8.32 3.68 -9 3 C-2.25 0 -2.25 0 0 0 Z " fill="#53A64F" transform="translate(934,240)"/>
</svg>
